<mxfile host="65bd71144e" modified="2021-01-05T06:56:44.284Z" agent="5.0 (Macintosh; Intel Mac OS X 10_12_3) AppleWebKit/537.36 (KHTML, like Gecko) Code/1.46.0 Chrome/78.0.3904.130 Electron/7.3.1 Safari/537.36" etag="rTm8NAF8QcKe9G3oW8yX" version="13.10.0" type="embed">
    <diagram id="aa8UdqtfkiOayn3rqtdB" name="第 1 页">
        <mxGraphModel dx="2018" dy="742" grid="1" gridSize="10" guides="1" tooltips="1" connect="1" arrows="1" fold="1" page="1" pageScale="1" pageWidth="827" pageHeight="1169" math="0" shadow="0">
            <root>
                <mxCell id="0"/>
                <object label="bst-build" id="1">
                    <mxCell parent="0" visible="0"/>
                </object>
                <mxCell id="n2YznU2ucoyNt7KkT2WX-1" value="1" style="ellipse;whiteSpace=wrap;html=1;aspect=fixed;shadow=1;fillColor=#60a917;fontColor=#ffffff;strokeColor=none;" parent="1" vertex="1">
                    <mxGeometry x="160" y="140" width="40" height="40" as="geometry"/>
                </mxCell>
                <mxCell id="n2YznU2ucoyNt7KkT2WX-13" style="edgeStyle=none;rounded=0;orthogonalLoop=1;jettySize=auto;html=1;exitX=1;exitY=1;exitDx=0;exitDy=0;entryX=0.25;entryY=0;entryDx=0;entryDy=0;entryPerimeter=0;endArrow=none;endFill=0;shadow=1;fillColor=#60a917;" parent="1" source="n2YznU2ucoyNt7KkT2WX-2" target="n2YznU2ucoyNt7KkT2WX-3" edge="1">
                    <mxGeometry relative="1" as="geometry"/>
                </mxCell>
                <mxCell id="n2YznU2ucoyNt7KkT2WX-2" value="1" style="ellipse;whiteSpace=wrap;html=1;aspect=fixed;shadow=1;fillColor=#60a917;fontColor=#ffffff;strokeColor=none;" parent="1" vertex="1">
                    <mxGeometry x="260" y="140" width="40" height="40" as="geometry"/>
                </mxCell>
                <mxCell id="n2YznU2ucoyNt7KkT2WX-3" value="450" style="ellipse;whiteSpace=wrap;html=1;aspect=fixed;shadow=1;fillColor=#60a917;fontColor=#ffffff;strokeColor=none;" parent="1" vertex="1">
                    <mxGeometry x="300" y="200" width="40" height="40" as="geometry"/>
                </mxCell>
                <mxCell id="n2YznU2ucoyNt7KkT2WX-4" value="" style="endArrow=none;dashed=1;html=1;shadow=1;fillColor=#60a917;" parent="1" edge="1">
                    <mxGeometry width="50" height="50" relative="1" as="geometry">
                        <mxPoint x="240" y="270" as="sourcePoint"/>
                        <mxPoint x="240" y="130" as="targetPoint"/>
                    </mxGeometry>
                </mxCell>
                <mxCell id="n2YznU2ucoyNt7KkT2WX-5" value="" style="endArrow=none;dashed=1;html=1;shadow=1;fillColor=#60a917;" parent="1" edge="1">
                    <mxGeometry width="50" height="50" relative="1" as="geometry">
                        <mxPoint x="390" y="270" as="sourcePoint"/>
                        <mxPoint x="390" y="130" as="targetPoint"/>
                    </mxGeometry>
                </mxCell>
                <mxCell id="n2YznU2ucoyNt7KkT2WX-11" style="rounded=0;orthogonalLoop=1;jettySize=auto;html=1;exitX=1;exitY=1;exitDx=0;exitDy=0;entryX=0;entryY=0;entryDx=0;entryDy=0;endArrow=none;endFill=0;shadow=1;fillColor=#60a917;" parent="1" source="n2YznU2ucoyNt7KkT2WX-6" target="n2YznU2ucoyNt7KkT2WX-7" edge="1">
                    <mxGeometry relative="1" as="geometry"/>
                </mxCell>
                <mxCell id="n2YznU2ucoyNt7KkT2WX-6" value="1" style="ellipse;whiteSpace=wrap;html=1;aspect=fixed;shadow=1;fillColor=#60a917;fontColor=#ffffff;strokeColor=none;" parent="1" vertex="1">
                    <mxGeometry x="480" y="140" width="40" height="40" as="geometry"/>
                </mxCell>
                <mxCell id="n2YznU2ucoyNt7KkT2WX-12" style="edgeStyle=none;rounded=0;orthogonalLoop=1;jettySize=auto;html=1;exitX=0;exitY=1;exitDx=0;exitDy=0;entryX=1;entryY=0;entryDx=0;entryDy=0;endArrow=none;endFill=0;shadow=1;fillColor=#60a917;" parent="1" source="n2YznU2ucoyNt7KkT2WX-7" target="n2YznU2ucoyNt7KkT2WX-8" edge="1">
                    <mxGeometry relative="1" as="geometry"/>
                </mxCell>
                <mxCell id="n2YznU2ucoyNt7KkT2WX-7" value="450" style="ellipse;whiteSpace=wrap;html=1;aspect=fixed;shadow=1;fillColor=#60a917;fontColor=#ffffff;strokeColor=none;" parent="1" vertex="1">
                    <mxGeometry x="520" y="200" width="40" height="40" as="geometry"/>
                </mxCell>
                <mxCell id="n2YznU2ucoyNt7KkT2WX-8" value="3&lt;br&gt;" style="ellipse;whiteSpace=wrap;html=1;aspect=fixed;shadow=1;fillColor=#60a917;fontColor=#ffffff;strokeColor=none;" parent="1" vertex="1">
                    <mxGeometry x="450" y="270" width="40" height="40" as="geometry"/>
                </mxCell>
                <mxCell id="n2YznU2ucoyNt7KkT2WX-9" value="4" style="ellipse;whiteSpace=wrap;html=1;aspect=fixed;shadow=1;fillColor=#60a917;fontColor=#ffffff;strokeColor=none;" parent="1" vertex="1">
                    <mxGeometry x="730" y="310" width="40" height="40" as="geometry"/>
                </mxCell>
                <mxCell id="n2YznU2ucoyNt7KkT2WX-10" value="" style="endArrow=none;dashed=1;html=1;shadow=1;fillColor=#60a917;" parent="1" edge="1">
                    <mxGeometry width="50" height="50" relative="1" as="geometry">
                        <mxPoint x="610" y="270" as="sourcePoint"/>
                        <mxPoint x="610" y="130" as="targetPoint"/>
                    </mxGeometry>
                </mxCell>
                <mxCell id="n2YznU2ucoyNt7KkT2WX-14" style="rounded=0;orthogonalLoop=1;jettySize=auto;html=1;exitX=1;exitY=1;exitDx=0;exitDy=0;entryX=0;entryY=0;entryDx=0;entryDy=0;endArrow=none;endFill=0;shadow=1;fillColor=#60a917;" parent="1" source="n2YznU2ucoyNt7KkT2WX-15" target="n2YznU2ucoyNt7KkT2WX-17" edge="1">
                    <mxGeometry relative="1" as="geometry"/>
                </mxCell>
                <mxCell id="n2YznU2ucoyNt7KkT2WX-15" value="1" style="ellipse;whiteSpace=wrap;html=1;aspect=fixed;shadow=1;fillColor=#60a917;fontColor=#ffffff;strokeColor=none;" parent="1" vertex="1">
                    <mxGeometry x="690" y="135" width="40" height="40" as="geometry"/>
                </mxCell>
                <mxCell id="n2YznU2ucoyNt7KkT2WX-16" style="edgeStyle=none;rounded=0;orthogonalLoop=1;jettySize=auto;html=1;exitX=0;exitY=1;exitDx=0;exitDy=0;entryX=1;entryY=0;entryDx=0;entryDy=0;endArrow=none;endFill=0;shadow=1;fillColor=#60a917;" parent="1" source="n2YznU2ucoyNt7KkT2WX-17" target="n2YznU2ucoyNt7KkT2WX-18" edge="1">
                    <mxGeometry relative="1" as="geometry"/>
                </mxCell>
                <mxCell id="n2YznU2ucoyNt7KkT2WX-17" value="450" style="ellipse;whiteSpace=wrap;html=1;aspect=fixed;shadow=1;fillColor=#60a917;fontColor=#ffffff;strokeColor=none;" parent="1" vertex="1">
                    <mxGeometry x="730" y="195" width="40" height="40" as="geometry"/>
                </mxCell>
                <mxCell id="n2YznU2ucoyNt7KkT2WX-19" style="edgeStyle=none;rounded=0;orthogonalLoop=1;jettySize=auto;html=1;exitX=1;exitY=1;exitDx=0;exitDy=0;entryX=0;entryY=0.25;entryDx=0;entryDy=0;entryPerimeter=0;endArrow=none;endFill=0;shadow=1;fillColor=#60a917;" parent="1" source="n2YznU2ucoyNt7KkT2WX-18" target="n2YznU2ucoyNt7KkT2WX-9" edge="1">
                    <mxGeometry relative="1" as="geometry"/>
                </mxCell>
                <mxCell id="n2YznU2ucoyNt7KkT2WX-18" value="3&lt;br&gt;" style="ellipse;whiteSpace=wrap;html=1;aspect=fixed;shadow=1;fillColor=#60a917;fontColor=#ffffff;strokeColor=none;" parent="1" vertex="1">
                    <mxGeometry x="660" y="265" width="40" height="40" as="geometry"/>
                </mxCell>
                <mxCell id="n2YznU2ucoyNt7KkT2WX-43" style="edgeStyle=none;rounded=0;orthogonalLoop=1;jettySize=auto;html=1;exitX=1;exitY=0.5;exitDx=0;exitDy=0;entryX=0;entryY=0.5;entryDx=0;entryDy=0;endArrow=none;endFill=0;shadow=1;fillColor=#60a917;" parent="1" source="n2YznU2ucoyNt7KkT2WX-26" target="n2YznU2ucoyNt7KkT2WX-33" edge="1">
                    <mxGeometry relative="1" as="geometry"/>
                </mxCell>
                <mxCell id="n2YznU2ucoyNt7KkT2WX-26" value="4" style="ellipse;whiteSpace=wrap;html=1;aspect=fixed;shadow=1;fillColor=#60a917;fontColor=#ffffff;strokeColor=none;" parent="1" vertex="1">
                    <mxGeometry x="389" y="530" width="40" height="40" as="geometry"/>
                </mxCell>
                <mxCell id="n2YznU2ucoyNt7KkT2WX-27" style="rounded=0;orthogonalLoop=1;jettySize=auto;html=1;exitX=1;exitY=1;exitDx=0;exitDy=0;entryX=0;entryY=0;entryDx=0;entryDy=0;endArrow=none;endFill=0;shadow=1;fillColor=#60a917;" parent="1" source="n2YznU2ucoyNt7KkT2WX-28" target="n2YznU2ucoyNt7KkT2WX-30" edge="1">
                    <mxGeometry relative="1" as="geometry"/>
                </mxCell>
                <mxCell id="n2YznU2ucoyNt7KkT2WX-28" value="1" style="ellipse;whiteSpace=wrap;html=1;aspect=fixed;shadow=1;fillColor=#60a917;fontColor=#ffffff;strokeColor=none;" parent="1" vertex="1">
                    <mxGeometry x="389" y="370" width="40" height="40" as="geometry"/>
                </mxCell>
                <mxCell id="n2YznU2ucoyNt7KkT2WX-29" style="edgeStyle=none;rounded=0;orthogonalLoop=1;jettySize=auto;html=1;exitX=0;exitY=1;exitDx=0;exitDy=0;entryX=1;entryY=0;entryDx=0;entryDy=0;endArrow=none;endFill=0;shadow=1;fillColor=#60a917;" parent="1" source="n2YznU2ucoyNt7KkT2WX-30" target="n2YznU2ucoyNt7KkT2WX-32" edge="1">
                    <mxGeometry relative="1" as="geometry"/>
                </mxCell>
                <mxCell id="n2YznU2ucoyNt7KkT2WX-30" value="450" style="ellipse;whiteSpace=wrap;html=1;aspect=fixed;shadow=1;fillColor=#60a917;fontColor=#ffffff;strokeColor=none;" parent="1" vertex="1">
                    <mxGeometry x="429" y="430" width="40" height="40" as="geometry"/>
                </mxCell>
                <mxCell id="n2YznU2ucoyNt7KkT2WX-31" style="edgeStyle=none;rounded=0;orthogonalLoop=1;jettySize=auto;html=1;exitX=1;exitY=1;exitDx=0;exitDy=0;entryX=0;entryY=0.25;entryDx=0;entryDy=0;entryPerimeter=0;endArrow=none;endFill=0;shadow=1;fillColor=#60a917;" parent="1" source="n2YznU2ucoyNt7KkT2WX-32" target="n2YznU2ucoyNt7KkT2WX-26" edge="1">
                    <mxGeometry relative="1" as="geometry"/>
                </mxCell>
                <mxCell id="n2YznU2ucoyNt7KkT2WX-32" value="3&lt;br&gt;" style="ellipse;whiteSpace=wrap;html=1;aspect=fixed;shadow=1;fillColor=#60a917;fontColor=#ffffff;strokeColor=none;" parent="1" vertex="1">
                    <mxGeometry x="320" y="480" width="40" height="40" as="geometry"/>
                </mxCell>
                <mxCell id="n2YznU2ucoyNt7KkT2WX-40" style="edgeStyle=none;rounded=0;orthogonalLoop=1;jettySize=auto;html=1;exitX=1;exitY=1;exitDx=0;exitDy=0;entryX=0;entryY=0;entryDx=0;entryDy=0;endArrow=none;endFill=0;shadow=1;fillColor=#60a917;" parent="1" source="n2YznU2ucoyNt7KkT2WX-33" target="n2YznU2ucoyNt7KkT2WX-35" edge="1">
                    <mxGeometry relative="1" as="geometry"/>
                </mxCell>
                <mxCell id="n2YznU2ucoyNt7KkT2WX-33" value="56" style="ellipse;whiteSpace=wrap;html=1;aspect=fixed;shadow=1;fillColor=#60a917;fontColor=#ffffff;strokeColor=none;" parent="1" vertex="1">
                    <mxGeometry x="480" y="570" width="40" height="40" as="geometry"/>
                </mxCell>
                <mxCell id="n2YznU2ucoyNt7KkT2WX-44" style="edgeStyle=none;rounded=0;orthogonalLoop=1;jettySize=auto;html=1;exitX=0.5;exitY=0;exitDx=0;exitDy=0;entryX=0;entryY=1;entryDx=0;entryDy=0;endArrow=none;endFill=0;shadow=1;fillColor=#60a917;" parent="1" source="n2YznU2ucoyNt7KkT2WX-34" target="n2YznU2ucoyNt7KkT2WX-33" edge="1">
                    <mxGeometry relative="1" as="geometry"/>
                </mxCell>
                <mxCell id="n2YznU2ucoyNt7KkT2WX-45" style="edgeStyle=none;rounded=0;orthogonalLoop=1;jettySize=auto;html=1;exitX=1;exitY=1;exitDx=0;exitDy=0;entryX=0;entryY=0;entryDx=0;entryDy=0;endArrow=none;endFill=0;shadow=1;fillColor=#60a917;" parent="1" source="n2YznU2ucoyNt7KkT2WX-34" target="n2YznU2ucoyNt7KkT2WX-36" edge="1">
                    <mxGeometry relative="1" as="geometry"/>
                </mxCell>
                <mxCell id="n2YznU2ucoyNt7KkT2WX-47" style="edgeStyle=none;rounded=0;orthogonalLoop=1;jettySize=auto;html=1;exitX=0;exitY=1;exitDx=0;exitDy=0;endArrow=none;endFill=0;shadow=1;fillColor=#60a917;" parent="1" source="n2YznU2ucoyNt7KkT2WX-34" target="n2YznU2ucoyNt7KkT2WX-38" edge="1">
                    <mxGeometry relative="1" as="geometry"/>
                </mxCell>
                <mxCell id="n2YznU2ucoyNt7KkT2WX-34" value="12" style="ellipse;whiteSpace=wrap;html=1;aspect=fixed;shadow=1;fillColor=#60a917;fontColor=#ffffff;strokeColor=none;" parent="1" vertex="1">
                    <mxGeometry x="429" y="650" width="40" height="40" as="geometry"/>
                </mxCell>
                <mxCell id="n2YznU2ucoyNt7KkT2WX-35" value="123" style="ellipse;whiteSpace=wrap;html=1;aspect=fixed;shadow=1;fillColor=#60a917;fontColor=#ffffff;strokeColor=none;" parent="1" vertex="1">
                    <mxGeometry x="570" y="650" width="40" height="40" as="geometry"/>
                </mxCell>
                <mxCell id="n2YznU2ucoyNt7KkT2WX-46" style="edgeStyle=none;rounded=0;orthogonalLoop=1;jettySize=auto;html=1;exitX=0;exitY=1;exitDx=0;exitDy=0;entryX=1;entryY=0;entryDx=0;entryDy=0;endArrow=none;endFill=0;shadow=1;fillColor=#60a917;" parent="1" source="n2YznU2ucoyNt7KkT2WX-36" target="n2YznU2ucoyNt7KkT2WX-37" edge="1">
                    <mxGeometry relative="1" as="geometry"/>
                </mxCell>
                <mxCell id="n2YznU2ucoyNt7KkT2WX-36" value="45" style="ellipse;whiteSpace=wrap;html=1;aspect=fixed;shadow=1;fillColor=#60a917;fontColor=#ffffff;strokeColor=none;" parent="1" vertex="1">
                    <mxGeometry x="480" y="710" width="40" height="40" as="geometry"/>
                </mxCell>
                <mxCell id="n2YznU2ucoyNt7KkT2WX-37" value="23" style="ellipse;whiteSpace=wrap;html=1;aspect=fixed;shadow=1;fillColor=#60a917;fontColor=#ffffff;strokeColor=none;" parent="1" vertex="1">
                    <mxGeometry x="420" y="780" width="40" height="40" as="geometry"/>
                </mxCell>
                <mxCell id="n2YznU2ucoyNt7KkT2WX-38" value="6" style="ellipse;whiteSpace=wrap;html=1;aspect=fixed;shadow=1;fillColor=#60a917;fontColor=#ffffff;strokeColor=none;" parent="1" vertex="1">
                    <mxGeometry x="340" y="700" width="40" height="40" as="geometry"/>
                </mxCell>
                <mxCell id="n2YznU2ucoyNt7KkT2WX-48" value="" style="endArrow=none;dashed=1;html=1;dashPattern=1 3;strokeWidth=2;shadow=1;fillColor=#60a917;" parent="1" edge="1">
                    <mxGeometry width="50" height="50" relative="1" as="geometry">
                        <mxPoint x="160" y="360" as="sourcePoint"/>
                        <mxPoint x="750" y="360" as="targetPoint"/>
                    </mxGeometry>
                </mxCell>
                <object label="bst-delete-1" id="n2YznU2ucoyNt7KkT2WX-69">
                    <mxCell parent="0" visible="0"/>
                </object>
                <mxCell id="n2YznU2ucoyNt7KkT2WX-70" style="edgeStyle=none;rounded=0;orthogonalLoop=1;jettySize=auto;html=1;exitX=1;exitY=0.5;exitDx=0;exitDy=0;entryX=0;entryY=0.5;entryDx=0;entryDy=0;endArrow=none;endFill=0;shadow=1;fillColor=#60a917;" parent="n2YznU2ucoyNt7KkT2WX-69" source="n2YznU2ucoyNt7KkT2WX-71" target="n2YznU2ucoyNt7KkT2WX-79" edge="1">
                    <mxGeometry relative="1" as="geometry"/>
                </mxCell>
                <mxCell id="n2YznU2ucoyNt7KkT2WX-71" value="4" style="ellipse;whiteSpace=wrap;html=1;aspect=fixed;shadow=1;fillColor=#60a917;fontColor=#ffffff;strokeColor=none;" parent="n2YznU2ucoyNt7KkT2WX-69" vertex="1">
                    <mxGeometry x="399" y="540" width="40" height="40" as="geometry"/>
                </mxCell>
                <mxCell id="n2YznU2ucoyNt7KkT2WX-72" style="rounded=0;orthogonalLoop=1;jettySize=auto;html=1;exitX=1;exitY=1;exitDx=0;exitDy=0;entryX=0;entryY=0;entryDx=0;entryDy=0;endArrow=none;endFill=0;shadow=1;fillColor=#60a917;" parent="n2YznU2ucoyNt7KkT2WX-69" source="n2YznU2ucoyNt7KkT2WX-73" target="n2YznU2ucoyNt7KkT2WX-75" edge="1">
                    <mxGeometry relative="1" as="geometry"/>
                </mxCell>
                <mxCell id="n2YznU2ucoyNt7KkT2WX-73" value="1" style="ellipse;whiteSpace=wrap;html=1;aspect=fixed;shadow=1;fillColor=#60a917;fontColor=#ffffff;strokeColor=none;" parent="n2YznU2ucoyNt7KkT2WX-69" vertex="1">
                    <mxGeometry x="399" y="380" width="40" height="40" as="geometry"/>
                </mxCell>
                <mxCell id="n2YznU2ucoyNt7KkT2WX-74" style="edgeStyle=none;rounded=0;orthogonalLoop=1;jettySize=auto;html=1;exitX=0;exitY=1;exitDx=0;exitDy=0;entryX=1;entryY=0;entryDx=0;entryDy=0;endArrow=none;endFill=0;shadow=1;fillColor=#60a917;" parent="n2YznU2ucoyNt7KkT2WX-69" source="n2YznU2ucoyNt7KkT2WX-75" target="n2YznU2ucoyNt7KkT2WX-77" edge="1">
                    <mxGeometry relative="1" as="geometry"/>
                </mxCell>
                <mxCell id="n2YznU2ucoyNt7KkT2WX-75" value="450" style="ellipse;whiteSpace=wrap;html=1;aspect=fixed;shadow=1;fillColor=#60a917;fontColor=#ffffff;strokeColor=none;" parent="n2YznU2ucoyNt7KkT2WX-69" vertex="1">
                    <mxGeometry x="439" y="440" width="40" height="40" as="geometry"/>
                </mxCell>
                <mxCell id="n2YznU2ucoyNt7KkT2WX-76" style="edgeStyle=none;rounded=0;orthogonalLoop=1;jettySize=auto;html=1;exitX=1;exitY=1;exitDx=0;exitDy=0;entryX=0;entryY=0.25;entryDx=0;entryDy=0;entryPerimeter=0;endArrow=none;endFill=0;shadow=1;fillColor=#60a917;" parent="n2YznU2ucoyNt7KkT2WX-69" source="n2YznU2ucoyNt7KkT2WX-77" target="n2YznU2ucoyNt7KkT2WX-71" edge="1">
                    <mxGeometry relative="1" as="geometry"/>
                </mxCell>
                <mxCell id="n2YznU2ucoyNt7KkT2WX-77" value="3&lt;br&gt;" style="ellipse;whiteSpace=wrap;html=1;aspect=fixed;shadow=1;fillColor=#60a917;fontColor=#ffffff;strokeColor=none;" parent="n2YznU2ucoyNt7KkT2WX-69" vertex="1">
                    <mxGeometry x="330" y="490" width="40" height="40" as="geometry"/>
                </mxCell>
                <mxCell id="n2YznU2ucoyNt7KkT2WX-78" style="edgeStyle=none;rounded=0;orthogonalLoop=1;jettySize=auto;html=1;exitX=1;exitY=1;exitDx=0;exitDy=0;entryX=0;entryY=0;entryDx=0;entryDy=0;endArrow=none;endFill=0;shadow=1;fillColor=#60a917;" parent="n2YznU2ucoyNt7KkT2WX-69" source="n2YznU2ucoyNt7KkT2WX-79" target="n2YznU2ucoyNt7KkT2WX-84" edge="1">
                    <mxGeometry relative="1" as="geometry"/>
                </mxCell>
                <mxCell id="n2YznU2ucoyNt7KkT2WX-79" value="56" style="ellipse;whiteSpace=wrap;html=1;aspect=fixed;shadow=1;fillColor=#60a917;fontColor=#ffffff;strokeColor=none;" parent="n2YznU2ucoyNt7KkT2WX-69" vertex="1">
                    <mxGeometry x="490" y="580" width="40" height="40" as="geometry"/>
                </mxCell>
                <mxCell id="n2YznU2ucoyNt7KkT2WX-80" style="edgeStyle=none;rounded=0;orthogonalLoop=1;jettySize=auto;html=1;exitX=0.5;exitY=0;exitDx=0;exitDy=0;entryX=0;entryY=1;entryDx=0;entryDy=0;endArrow=none;endFill=0;shadow=1;fillColor=#60a917;" parent="n2YznU2ucoyNt7KkT2WX-69" source="n2YznU2ucoyNt7KkT2WX-83" target="n2YznU2ucoyNt7KkT2WX-79" edge="1">
                    <mxGeometry relative="1" as="geometry"/>
                </mxCell>
                <mxCell id="n2YznU2ucoyNt7KkT2WX-81" style="edgeStyle=none;rounded=0;orthogonalLoop=1;jettySize=auto;html=1;exitX=1;exitY=1;exitDx=0;exitDy=0;entryX=0;entryY=0;entryDx=0;entryDy=0;endArrow=none;endFill=0;shadow=1;fillColor=#60a917;" parent="n2YznU2ucoyNt7KkT2WX-69" source="n2YznU2ucoyNt7KkT2WX-83" target="n2YznU2ucoyNt7KkT2WX-86" edge="1">
                    <mxGeometry relative="1" as="geometry"/>
                </mxCell>
                <mxCell id="n2YznU2ucoyNt7KkT2WX-82" style="edgeStyle=none;rounded=0;orthogonalLoop=1;jettySize=auto;html=1;exitX=0;exitY=1;exitDx=0;exitDy=0;endArrow=none;endFill=0;shadow=1;fillColor=#60a917;" parent="n2YznU2ucoyNt7KkT2WX-69" source="n2YznU2ucoyNt7KkT2WX-83" target="n2YznU2ucoyNt7KkT2WX-88" edge="1">
                    <mxGeometry relative="1" as="geometry"/>
                </mxCell>
                <mxCell id="n2YznU2ucoyNt7KkT2WX-83" value="12" style="ellipse;whiteSpace=wrap;html=1;aspect=fixed;shadow=1;fillColor=#60a917;fontColor=#ffffff;strokeColor=none;" parent="n2YznU2ucoyNt7KkT2WX-69" vertex="1">
                    <mxGeometry x="439" y="660" width="40" height="40" as="geometry"/>
                </mxCell>
                <mxCell id="n2YznU2ucoyNt7KkT2WX-84" value="123" style="ellipse;whiteSpace=wrap;html=1;aspect=fixed;shadow=1;fillColor=#60a917;fontColor=#ffffff;strokeColor=none;" parent="n2YznU2ucoyNt7KkT2WX-69" vertex="1">
                    <mxGeometry x="580" y="660" width="40" height="40" as="geometry"/>
                </mxCell>
                <mxCell id="n2YznU2ucoyNt7KkT2WX-85" style="edgeStyle=none;rounded=0;orthogonalLoop=1;jettySize=auto;html=1;exitX=0;exitY=1;exitDx=0;exitDy=0;entryX=1;entryY=0;entryDx=0;entryDy=0;endArrow=none;endFill=0;shadow=1;fillColor=#60a917;" parent="n2YznU2ucoyNt7KkT2WX-69" source="n2YznU2ucoyNt7KkT2WX-86" target="n2YznU2ucoyNt7KkT2WX-87" edge="1">
                    <mxGeometry relative="1" as="geometry"/>
                </mxCell>
                <mxCell id="n2YznU2ucoyNt7KkT2WX-86" value="45" style="ellipse;whiteSpace=wrap;html=1;aspect=fixed;shadow=1;fillColor=#60a917;fontColor=#ffffff;strokeColor=none;" parent="n2YznU2ucoyNt7KkT2WX-69" vertex="1">
                    <mxGeometry x="490" y="720" width="40" height="40" as="geometry"/>
                </mxCell>
                <mxCell id="n2YznU2ucoyNt7KkT2WX-87" value="23" style="ellipse;whiteSpace=wrap;html=1;aspect=fixed;shadow=1;fillColor=#fad9d5;strokeColor=#ae4132;" parent="n2YznU2ucoyNt7KkT2WX-69" vertex="1">
                    <mxGeometry x="430" y="790" width="40" height="40" as="geometry"/>
                </mxCell>
                <mxCell id="n2YznU2ucoyNt7KkT2WX-88" value="6" style="ellipse;whiteSpace=wrap;html=1;aspect=fixed;shadow=1;fillColor=#60a917;fontColor=#ffffff;strokeColor=none;" parent="n2YznU2ucoyNt7KkT2WX-69" vertex="1">
                    <mxGeometry x="350" y="710" width="40" height="40" as="geometry"/>
                </mxCell>
                <mxCell id="n2YznU2ucoyNt7KkT2WX-110" style="edgeStyle=none;rounded=0;orthogonalLoop=1;jettySize=auto;html=1;exitX=0.5;exitY=1;exitDx=0;exitDy=0;entryX=0.5;entryY=0;entryDx=0;entryDy=0;shadow=1;endArrow=none;endFill=0;strokeColor=#000000;" parent="n2YznU2ucoyNt7KkT2WX-69" source="n2YznU2ucoyNt7KkT2WX-103" target="n2YznU2ucoyNt7KkT2WX-107" edge="1">
                    <mxGeometry relative="1" as="geometry"/>
                </mxCell>
                <object label="bst-delete-2" id="n2YznU2ucoyNt7KkT2WX-89">
                    <mxCell parent="0" visible="0"/>
                </object>
                <mxCell id="n2YznU2ucoyNt7KkT2WX-90" style="edgeStyle=none;rounded=0;orthogonalLoop=1;jettySize=auto;html=1;exitX=1;exitY=0.5;exitDx=0;exitDy=0;entryX=0;entryY=0.5;entryDx=0;entryDy=0;endArrow=none;endFill=0;shadow=1;fillColor=#60a917;" parent="n2YznU2ucoyNt7KkT2WX-89" source="n2YznU2ucoyNt7KkT2WX-91" target="n2YznU2ucoyNt7KkT2WX-99" edge="1">
                    <mxGeometry relative="1" as="geometry"/>
                </mxCell>
                <mxCell id="n2YznU2ucoyNt7KkT2WX-91" value="4" style="ellipse;whiteSpace=wrap;html=1;aspect=fixed;shadow=1;fillColor=#60a917;fontColor=#ffffff;strokeColor=none;" parent="n2YznU2ucoyNt7KkT2WX-89" vertex="1">
                    <mxGeometry x="149" y="460" width="40" height="40" as="geometry"/>
                </mxCell>
                <mxCell id="n2YznU2ucoyNt7KkT2WX-92" style="rounded=0;orthogonalLoop=1;jettySize=auto;html=1;exitX=1;exitY=1;exitDx=0;exitDy=0;entryX=0;entryY=0;entryDx=0;entryDy=0;endArrow=none;endFill=0;shadow=1;fillColor=#60a917;" parent="n2YznU2ucoyNt7KkT2WX-89" source="n2YznU2ucoyNt7KkT2WX-93" target="n2YznU2ucoyNt7KkT2WX-95" edge="1">
                    <mxGeometry relative="1" as="geometry"/>
                </mxCell>
                <mxCell id="n2YznU2ucoyNt7KkT2WX-93" value="1" style="ellipse;whiteSpace=wrap;html=1;aspect=fixed;shadow=1;fillColor=#60a917;fontColor=#ffffff;strokeColor=none;" parent="n2YznU2ucoyNt7KkT2WX-89" vertex="1">
                    <mxGeometry x="149" y="300" width="40" height="40" as="geometry"/>
                </mxCell>
                <mxCell id="n2YznU2ucoyNt7KkT2WX-94" style="edgeStyle=none;rounded=0;orthogonalLoop=1;jettySize=auto;html=1;exitX=0;exitY=1;exitDx=0;exitDy=0;entryX=1;entryY=0;entryDx=0;entryDy=0;endArrow=none;endFill=0;shadow=1;fillColor=#60a917;" parent="n2YznU2ucoyNt7KkT2WX-89" source="n2YznU2ucoyNt7KkT2WX-95" target="n2YznU2ucoyNt7KkT2WX-97" edge="1">
                    <mxGeometry relative="1" as="geometry"/>
                </mxCell>
                <mxCell id="n2YznU2ucoyNt7KkT2WX-95" value="450" style="ellipse;whiteSpace=wrap;html=1;aspect=fixed;shadow=1;fillColor=#60a917;fontColor=#ffffff;strokeColor=none;" parent="n2YznU2ucoyNt7KkT2WX-89" vertex="1">
                    <mxGeometry x="189" y="360" width="40" height="40" as="geometry"/>
                </mxCell>
                <mxCell id="n2YznU2ucoyNt7KkT2WX-96" style="edgeStyle=none;rounded=0;orthogonalLoop=1;jettySize=auto;html=1;exitX=1;exitY=1;exitDx=0;exitDy=0;entryX=0;entryY=0.25;entryDx=0;entryDy=0;entryPerimeter=0;endArrow=none;endFill=0;shadow=1;fillColor=#60a917;" parent="n2YznU2ucoyNt7KkT2WX-89" source="n2YznU2ucoyNt7KkT2WX-97" target="n2YznU2ucoyNt7KkT2WX-91" edge="1">
                    <mxGeometry relative="1" as="geometry"/>
                </mxCell>
                <mxCell id="n2YznU2ucoyNt7KkT2WX-97" value="3&lt;br&gt;" style="ellipse;whiteSpace=wrap;html=1;aspect=fixed;shadow=1;fillColor=#60a917;fontColor=#ffffff;strokeColor=none;" parent="n2YznU2ucoyNt7KkT2WX-89" vertex="1">
                    <mxGeometry x="80" y="410" width="40" height="40" as="geometry"/>
                </mxCell>
                <mxCell id="n2YznU2ucoyNt7KkT2WX-98" style="edgeStyle=none;rounded=0;orthogonalLoop=1;jettySize=auto;html=1;exitX=1;exitY=1;exitDx=0;exitDy=0;entryX=0;entryY=0;entryDx=0;entryDy=0;endArrow=none;endFill=0;shadow=1;fillColor=#60a917;" parent="n2YznU2ucoyNt7KkT2WX-89" source="n2YznU2ucoyNt7KkT2WX-99" target="n2YznU2ucoyNt7KkT2WX-104" edge="1">
                    <mxGeometry relative="1" as="geometry"/>
                </mxCell>
                <mxCell id="n2YznU2ucoyNt7KkT2WX-99" value="56" style="ellipse;whiteSpace=wrap;html=1;aspect=fixed;shadow=1;fillColor=#60a917;fontColor=#ffffff;strokeColor=none;" parent="n2YznU2ucoyNt7KkT2WX-89" vertex="1">
                    <mxGeometry x="240" y="500" width="40" height="40" as="geometry"/>
                </mxCell>
                <mxCell id="n2YznU2ucoyNt7KkT2WX-100" style="edgeStyle=none;rounded=0;orthogonalLoop=1;jettySize=auto;html=1;exitX=0.5;exitY=0;exitDx=0;exitDy=0;entryX=0;entryY=1;entryDx=0;entryDy=0;endArrow=none;endFill=0;shadow=1;fillColor=#60a917;" parent="n2YznU2ucoyNt7KkT2WX-89" source="n2YznU2ucoyNt7KkT2WX-103" target="n2YznU2ucoyNt7KkT2WX-99" edge="1">
                    <mxGeometry relative="1" as="geometry"/>
                </mxCell>
                <mxCell id="n2YznU2ucoyNt7KkT2WX-101" style="edgeStyle=none;rounded=0;orthogonalLoop=1;jettySize=auto;html=1;exitX=1;exitY=1;exitDx=0;exitDy=0;entryX=0;entryY=0;entryDx=0;entryDy=0;endArrow=none;endFill=0;shadow=1;fillColor=#60a917;dashed=1;" parent="n2YznU2ucoyNt7KkT2WX-89" source="n2YznU2ucoyNt7KkT2WX-103" target="n2YznU2ucoyNt7KkT2WX-106" edge="1">
                    <mxGeometry relative="1" as="geometry"/>
                </mxCell>
                <mxCell id="n2YznU2ucoyNt7KkT2WX-102" style="edgeStyle=none;rounded=0;orthogonalLoop=1;jettySize=auto;html=1;exitX=0;exitY=1;exitDx=0;exitDy=0;endArrow=none;endFill=0;shadow=1;fillColor=#60a917;" parent="n2YznU2ucoyNt7KkT2WX-89" source="n2YznU2ucoyNt7KkT2WX-103" target="n2YznU2ucoyNt7KkT2WX-108" edge="1">
                    <mxGeometry relative="1" as="geometry"/>
                </mxCell>
                <mxCell id="n2YznU2ucoyNt7KkT2WX-112" style="edgeStyle=none;rounded=0;orthogonalLoop=1;jettySize=auto;html=1;exitX=0.5;exitY=1;exitDx=0;exitDy=0;shadow=1;endArrow=none;endFill=0;strokeColor=#001DBC;fillColor=#0050ef;" parent="n2YznU2ucoyNt7KkT2WX-89" source="n2YznU2ucoyNt7KkT2WX-103" target="n2YznU2ucoyNt7KkT2WX-107" edge="1">
                    <mxGeometry relative="1" as="geometry"/>
                </mxCell>
                <mxCell id="n2YznU2ucoyNt7KkT2WX-103" value="12" style="ellipse;whiteSpace=wrap;html=1;aspect=fixed;shadow=1;fillColor=#60a917;fontColor=#ffffff;strokeColor=none;" parent="n2YznU2ucoyNt7KkT2WX-89" vertex="1">
                    <mxGeometry x="189" y="580" width="40" height="40" as="geometry"/>
                </mxCell>
                <mxCell id="n2YznU2ucoyNt7KkT2WX-104" value="123" style="ellipse;whiteSpace=wrap;html=1;aspect=fixed;shadow=1;fillColor=#60a917;fontColor=#ffffff;strokeColor=none;" parent="n2YznU2ucoyNt7KkT2WX-89" vertex="1">
                    <mxGeometry x="330" y="580" width="40" height="40" as="geometry"/>
                </mxCell>
                <mxCell id="n2YznU2ucoyNt7KkT2WX-105" style="edgeStyle=none;rounded=0;orthogonalLoop=1;jettySize=auto;html=1;exitX=0;exitY=1;exitDx=0;exitDy=0;entryX=1;entryY=0;entryDx=0;entryDy=0;endArrow=none;endFill=0;shadow=1;fillColor=#60a917;dashed=1;" parent="n2YznU2ucoyNt7KkT2WX-89" source="n2YznU2ucoyNt7KkT2WX-106" target="n2YznU2ucoyNt7KkT2WX-107" edge="1">
                    <mxGeometry relative="1" as="geometry"/>
                </mxCell>
                <mxCell id="n2YznU2ucoyNt7KkT2WX-106" value="45" style="ellipse;whiteSpace=wrap;html=1;aspect=fixed;shadow=1;fillColor=#fad9d5;strokeColor=#ae4132;" parent="n2YznU2ucoyNt7KkT2WX-89" vertex="1">
                    <mxGeometry x="240" y="640" width="40" height="40" as="geometry"/>
                </mxCell>
                <mxCell id="n2YznU2ucoyNt7KkT2WX-107" value="23" style="ellipse;whiteSpace=wrap;html=1;aspect=fixed;shadow=1;fillColor=#60a917;strokeColor=#2D7600;fontColor=#ffffff;" parent="n2YznU2ucoyNt7KkT2WX-89" vertex="1">
                    <mxGeometry x="180" y="710" width="40" height="40" as="geometry"/>
                </mxCell>
                <mxCell id="n2YznU2ucoyNt7KkT2WX-108" value="6" style="ellipse;whiteSpace=wrap;html=1;aspect=fixed;shadow=1;fillColor=#60a917;fontColor=#ffffff;strokeColor=none;" parent="n2YznU2ucoyNt7KkT2WX-89" vertex="1">
                    <mxGeometry x="100" y="630" width="40" height="40" as="geometry"/>
                </mxCell>
                <mxCell id="n2YznU2ucoyNt7KkT2WX-113" style="edgeStyle=none;rounded=0;orthogonalLoop=1;jettySize=auto;html=1;exitX=1;exitY=0.5;exitDx=0;exitDy=0;entryX=0;entryY=0.5;entryDx=0;entryDy=0;endArrow=none;endFill=0;shadow=1;fillColor=#60a917;" parent="n2YznU2ucoyNt7KkT2WX-89" source="n2YznU2ucoyNt7KkT2WX-114" target="n2YznU2ucoyNt7KkT2WX-122" edge="1">
                    <mxGeometry relative="1" as="geometry"/>
                </mxCell>
                <mxCell id="n2YznU2ucoyNt7KkT2WX-114" value="4" style="ellipse;whiteSpace=wrap;html=1;aspect=fixed;shadow=1;fillColor=#60a917;fontColor=#ffffff;strokeColor=none;" parent="n2YznU2ucoyNt7KkT2WX-89" vertex="1">
                    <mxGeometry x="529" y="470" width="40" height="40" as="geometry"/>
                </mxCell>
                <mxCell id="n2YznU2ucoyNt7KkT2WX-115" style="rounded=0;orthogonalLoop=1;jettySize=auto;html=1;exitX=1;exitY=1;exitDx=0;exitDy=0;entryX=0;entryY=0;entryDx=0;entryDy=0;endArrow=none;endFill=0;shadow=1;fillColor=#60a917;" parent="n2YznU2ucoyNt7KkT2WX-89" source="n2YznU2ucoyNt7KkT2WX-116" target="n2YznU2ucoyNt7KkT2WX-118" edge="1">
                    <mxGeometry relative="1" as="geometry"/>
                </mxCell>
                <mxCell id="n2YznU2ucoyNt7KkT2WX-116" value="1" style="ellipse;whiteSpace=wrap;html=1;aspect=fixed;shadow=1;fillColor=#60a917;fontColor=#ffffff;strokeColor=none;" parent="n2YznU2ucoyNt7KkT2WX-89" vertex="1">
                    <mxGeometry x="529" y="310" width="40" height="40" as="geometry"/>
                </mxCell>
                <mxCell id="n2YznU2ucoyNt7KkT2WX-117" style="edgeStyle=none;rounded=0;orthogonalLoop=1;jettySize=auto;html=1;exitX=0;exitY=1;exitDx=0;exitDy=0;entryX=1;entryY=0;entryDx=0;entryDy=0;endArrow=none;endFill=0;shadow=1;fillColor=#60a917;dashed=1;" parent="n2YznU2ucoyNt7KkT2WX-89" source="n2YznU2ucoyNt7KkT2WX-118" target="n2YznU2ucoyNt7KkT2WX-120" edge="1">
                    <mxGeometry relative="1" as="geometry"/>
                </mxCell>
                <mxCell id="n2YznU2ucoyNt7KkT2WX-133" style="edgeStyle=none;rounded=0;orthogonalLoop=1;jettySize=auto;html=1;entryX=0.5;entryY=0;entryDx=0;entryDy=0;shadow=1;endArrow=none;endFill=0;strokeColor=#004C99;" parent="n2YznU2ucoyNt7KkT2WX-89" source="n2YznU2ucoyNt7KkT2WX-118" target="n2YznU2ucoyNt7KkT2WX-114" edge="1">
                    <mxGeometry relative="1" as="geometry"/>
                </mxCell>
                <mxCell id="n2YznU2ucoyNt7KkT2WX-118" value="450" style="ellipse;whiteSpace=wrap;html=1;aspect=fixed;shadow=1;fillColor=#60a917;fontColor=#ffffff;strokeColor=none;" parent="n2YznU2ucoyNt7KkT2WX-89" vertex="1">
                    <mxGeometry x="569" y="370" width="40" height="40" as="geometry"/>
                </mxCell>
                <mxCell id="n2YznU2ucoyNt7KkT2WX-119" style="edgeStyle=none;rounded=0;orthogonalLoop=1;jettySize=auto;html=1;exitX=1;exitY=1;exitDx=0;exitDy=0;entryX=0;entryY=0.25;entryDx=0;entryDy=0;entryPerimeter=0;endArrow=none;endFill=0;shadow=1;fillColor=#60a917;dashed=1;" parent="n2YznU2ucoyNt7KkT2WX-89" source="n2YznU2ucoyNt7KkT2WX-120" target="n2YznU2ucoyNt7KkT2WX-114" edge="1">
                    <mxGeometry relative="1" as="geometry"/>
                </mxCell>
                <mxCell id="n2YznU2ucoyNt7KkT2WX-120" value="3&lt;br&gt;" style="ellipse;whiteSpace=wrap;html=1;aspect=fixed;shadow=1;fillColor=#fad9d5;strokeColor=#ae4132;" parent="n2YznU2ucoyNt7KkT2WX-89" vertex="1">
                    <mxGeometry x="460" y="420" width="40" height="40" as="geometry"/>
                </mxCell>
                <mxCell id="n2YznU2ucoyNt7KkT2WX-121" style="edgeStyle=none;rounded=0;orthogonalLoop=1;jettySize=auto;html=1;exitX=1;exitY=1;exitDx=0;exitDy=0;entryX=0;entryY=0;entryDx=0;entryDy=0;endArrow=none;endFill=0;shadow=1;fillColor=#60a917;" parent="n2YznU2ucoyNt7KkT2WX-89" source="n2YznU2ucoyNt7KkT2WX-122" target="n2YznU2ucoyNt7KkT2WX-128" edge="1">
                    <mxGeometry relative="1" as="geometry"/>
                </mxCell>
                <mxCell id="n2YznU2ucoyNt7KkT2WX-122" value="56" style="ellipse;whiteSpace=wrap;html=1;aspect=fixed;shadow=1;fillColor=#60a917;fontColor=#ffffff;strokeColor=none;" parent="n2YznU2ucoyNt7KkT2WX-89" vertex="1">
                    <mxGeometry x="620" y="510" width="40" height="40" as="geometry"/>
                </mxCell>
                <mxCell id="n2YznU2ucoyNt7KkT2WX-123" style="edgeStyle=none;rounded=0;orthogonalLoop=1;jettySize=auto;html=1;exitX=0.5;exitY=0;exitDx=0;exitDy=0;entryX=0;entryY=1;entryDx=0;entryDy=0;endArrow=none;endFill=0;shadow=1;fillColor=#60a917;" parent="n2YznU2ucoyNt7KkT2WX-89" source="n2YznU2ucoyNt7KkT2WX-127" target="n2YznU2ucoyNt7KkT2WX-122" edge="1">
                    <mxGeometry relative="1" as="geometry"/>
                </mxCell>
                <mxCell id="n2YznU2ucoyNt7KkT2WX-124" style="edgeStyle=none;rounded=0;orthogonalLoop=1;jettySize=auto;html=1;exitX=1;exitY=1;exitDx=0;exitDy=0;entryX=0;entryY=0;entryDx=0;entryDy=0;endArrow=none;endFill=0;shadow=1;fillColor=#60a917;" parent="n2YznU2ucoyNt7KkT2WX-89" source="n2YznU2ucoyNt7KkT2WX-127" target="n2YznU2ucoyNt7KkT2WX-130" edge="1">
                    <mxGeometry relative="1" as="geometry"/>
                </mxCell>
                <mxCell id="n2YznU2ucoyNt7KkT2WX-125" style="edgeStyle=none;rounded=0;orthogonalLoop=1;jettySize=auto;html=1;exitX=0;exitY=1;exitDx=0;exitDy=0;endArrow=none;endFill=0;shadow=1;fillColor=#60a917;" parent="n2YznU2ucoyNt7KkT2WX-89" source="n2YznU2ucoyNt7KkT2WX-127" target="n2YznU2ucoyNt7KkT2WX-132" edge="1">
                    <mxGeometry relative="1" as="geometry"/>
                </mxCell>
                <mxCell id="n2YznU2ucoyNt7KkT2WX-127" value="12" style="ellipse;whiteSpace=wrap;html=1;aspect=fixed;shadow=1;fillColor=#60a917;fontColor=#ffffff;strokeColor=none;" parent="n2YznU2ucoyNt7KkT2WX-89" vertex="1">
                    <mxGeometry x="569" y="590" width="40" height="40" as="geometry"/>
                </mxCell>
                <mxCell id="n2YznU2ucoyNt7KkT2WX-128" value="123" style="ellipse;whiteSpace=wrap;html=1;aspect=fixed;shadow=1;fillColor=#60a917;fontColor=#ffffff;strokeColor=none;" parent="n2YznU2ucoyNt7KkT2WX-89" vertex="1">
                    <mxGeometry x="710" y="590" width="40" height="40" as="geometry"/>
                </mxCell>
                <mxCell id="n2YznU2ucoyNt7KkT2WX-129" style="edgeStyle=none;rounded=0;orthogonalLoop=1;jettySize=auto;html=1;exitX=0;exitY=1;exitDx=0;exitDy=0;entryX=1;entryY=0;entryDx=0;entryDy=0;endArrow=none;endFill=0;shadow=1;fillColor=#60a917;" parent="n2YznU2ucoyNt7KkT2WX-89" source="n2YznU2ucoyNt7KkT2WX-130" target="n2YznU2ucoyNt7KkT2WX-131" edge="1">
                    <mxGeometry relative="1" as="geometry"/>
                </mxCell>
                <mxCell id="n2YznU2ucoyNt7KkT2WX-130" value="45" style="ellipse;whiteSpace=wrap;html=1;aspect=fixed;shadow=1;fillColor=#60a917;strokeColor=#2D7600;fontColor=#ffffff;" parent="n2YznU2ucoyNt7KkT2WX-89" vertex="1">
                    <mxGeometry x="620" y="650" width="40" height="40" as="geometry"/>
                </mxCell>
                <mxCell id="n2YznU2ucoyNt7KkT2WX-131" value="23" style="ellipse;whiteSpace=wrap;html=1;aspect=fixed;shadow=1;fillColor=#60a917;strokeColor=#2D7600;fontColor=#ffffff;" parent="n2YznU2ucoyNt7KkT2WX-89" vertex="1">
                    <mxGeometry x="560" y="720" width="40" height="40" as="geometry"/>
                </mxCell>
                <mxCell id="n2YznU2ucoyNt7KkT2WX-132" value="6" style="ellipse;whiteSpace=wrap;html=1;aspect=fixed;shadow=1;fillColor=#60a917;fontColor=#ffffff;strokeColor=none;" parent="n2YznU2ucoyNt7KkT2WX-89" vertex="1">
                    <mxGeometry x="480" y="640" width="40" height="40" as="geometry"/>
                </mxCell>
                <object label="bst-delete-3" id="n2YznU2ucoyNt7KkT2WX-134">
                    <mxCell parent="0" visible="0"/>
                </object>
                <mxCell id="n2YznU2ucoyNt7KkT2WX-135" style="edgeStyle=none;rounded=0;orthogonalLoop=1;jettySize=auto;html=1;exitX=1;exitY=0.5;exitDx=0;exitDy=0;entryX=0;entryY=0.5;entryDx=0;entryDy=0;endArrow=none;endFill=0;shadow=1;fillColor=#60a917;" parent="n2YznU2ucoyNt7KkT2WX-134" source="n2YznU2ucoyNt7KkT2WX-136" target="n2YznU2ucoyNt7KkT2WX-144" edge="1">
                    <mxGeometry relative="1" as="geometry"/>
                </mxCell>
                <mxCell id="n2YznU2ucoyNt7KkT2WX-136" value="4" style="ellipse;whiteSpace=wrap;html=1;aspect=fixed;shadow=1;fillColor=#60a917;fontColor=#ffffff;strokeColor=none;" parent="n2YznU2ucoyNt7KkT2WX-134" vertex="1">
                    <mxGeometry x="139" y="415" width="40" height="40" as="geometry"/>
                </mxCell>
                <mxCell id="n2YznU2ucoyNt7KkT2WX-137" style="rounded=0;orthogonalLoop=1;jettySize=auto;html=1;exitX=1;exitY=1;exitDx=0;exitDy=0;entryX=0;entryY=0;entryDx=0;entryDy=0;endArrow=none;endFill=0;shadow=1;fillColor=#60a917;" parent="n2YznU2ucoyNt7KkT2WX-134" source="n2YznU2ucoyNt7KkT2WX-138" target="n2YznU2ucoyNt7KkT2WX-140" edge="1">
                    <mxGeometry relative="1" as="geometry"/>
                </mxCell>
                <mxCell id="n2YznU2ucoyNt7KkT2WX-138" value="1" style="ellipse;whiteSpace=wrap;html=1;aspect=fixed;shadow=1;fillColor=#60a917;fontColor=#ffffff;strokeColor=none;" parent="n2YznU2ucoyNt7KkT2WX-134" vertex="1">
                    <mxGeometry x="139" y="255" width="40" height="40" as="geometry"/>
                </mxCell>
                <mxCell id="n2YznU2ucoyNt7KkT2WX-139" style="edgeStyle=none;rounded=0;orthogonalLoop=1;jettySize=auto;html=1;exitX=0;exitY=1;exitDx=0;exitDy=0;entryX=1;entryY=0;entryDx=0;entryDy=0;endArrow=none;endFill=0;shadow=1;fillColor=#60a917;" parent="n2YznU2ucoyNt7KkT2WX-134" source="n2YznU2ucoyNt7KkT2WX-140" target="n2YznU2ucoyNt7KkT2WX-142" edge="1">
                    <mxGeometry relative="1" as="geometry"/>
                </mxCell>
                <mxCell id="n2YznU2ucoyNt7KkT2WX-140" value="450" style="ellipse;whiteSpace=wrap;html=1;aspect=fixed;shadow=1;fillColor=#60a917;fontColor=#ffffff;strokeColor=none;" parent="n2YznU2ucoyNt7KkT2WX-134" vertex="1">
                    <mxGeometry x="179" y="315" width="40" height="40" as="geometry"/>
                </mxCell>
                <mxCell id="n2YznU2ucoyNt7KkT2WX-141" style="edgeStyle=none;rounded=0;orthogonalLoop=1;jettySize=auto;html=1;exitX=1;exitY=1;exitDx=0;exitDy=0;entryX=0;entryY=0.25;entryDx=0;entryDy=0;entryPerimeter=0;endArrow=none;endFill=0;shadow=1;fillColor=#60a917;" parent="n2YznU2ucoyNt7KkT2WX-134" source="n2YznU2ucoyNt7KkT2WX-142" target="n2YznU2ucoyNt7KkT2WX-136" edge="1">
                    <mxGeometry relative="1" as="geometry"/>
                </mxCell>
                <mxCell id="n2YznU2ucoyNt7KkT2WX-142" value="3&lt;br&gt;" style="ellipse;whiteSpace=wrap;html=1;aspect=fixed;shadow=1;fillColor=#60a917;fontColor=#ffffff;strokeColor=none;" parent="n2YznU2ucoyNt7KkT2WX-134" vertex="1">
                    <mxGeometry x="70" y="365" width="40" height="40" as="geometry"/>
                </mxCell>
                <mxCell id="n2YznU2ucoyNt7KkT2WX-143" style="edgeStyle=none;rounded=0;orthogonalLoop=1;jettySize=auto;html=1;exitX=1;exitY=1;exitDx=0;exitDy=0;entryX=0;entryY=0;entryDx=0;entryDy=0;endArrow=none;endFill=0;shadow=1;fillColor=#60a917;" parent="n2YznU2ucoyNt7KkT2WX-134" source="n2YznU2ucoyNt7KkT2WX-144" target="n2YznU2ucoyNt7KkT2WX-149" edge="1">
                    <mxGeometry relative="1" as="geometry"/>
                </mxCell>
                <mxCell id="n2YznU2ucoyNt7KkT2WX-144" value="56" style="ellipse;whiteSpace=wrap;html=1;aspect=fixed;shadow=1;fillColor=#fad9d5;strokeColor=#ae4132;" parent="n2YznU2ucoyNt7KkT2WX-134" vertex="1">
                    <mxGeometry x="230" y="455" width="40" height="40" as="geometry"/>
                </mxCell>
                <mxCell id="n2YznU2ucoyNt7KkT2WX-145" style="edgeStyle=none;rounded=0;orthogonalLoop=1;jettySize=auto;html=1;exitX=0.5;exitY=0;exitDx=0;exitDy=0;entryX=0;entryY=1;entryDx=0;entryDy=0;endArrow=none;endFill=0;shadow=1;fillColor=#60a917;" parent="n2YznU2ucoyNt7KkT2WX-134" source="n2YznU2ucoyNt7KkT2WX-148" target="n2YznU2ucoyNt7KkT2WX-144" edge="1">
                    <mxGeometry relative="1" as="geometry"/>
                </mxCell>
                <mxCell id="n2YznU2ucoyNt7KkT2WX-146" style="edgeStyle=none;rounded=0;orthogonalLoop=1;jettySize=auto;html=1;exitX=1;exitY=1;exitDx=0;exitDy=0;entryX=0;entryY=0;entryDx=0;entryDy=0;endArrow=none;endFill=0;shadow=1;fillColor=#60a917;" parent="n2YznU2ucoyNt7KkT2WX-134" source="n2YznU2ucoyNt7KkT2WX-148" target="n2YznU2ucoyNt7KkT2WX-151" edge="1">
                    <mxGeometry relative="1" as="geometry"/>
                </mxCell>
                <mxCell id="n2YznU2ucoyNt7KkT2WX-147" style="edgeStyle=none;rounded=0;orthogonalLoop=1;jettySize=auto;html=1;exitX=0;exitY=1;exitDx=0;exitDy=0;endArrow=none;endFill=0;shadow=1;fillColor=#60a917;" parent="n2YznU2ucoyNt7KkT2WX-134" source="n2YznU2ucoyNt7KkT2WX-148" target="n2YznU2ucoyNt7KkT2WX-153" edge="1">
                    <mxGeometry relative="1" as="geometry"/>
                </mxCell>
                <mxCell id="n2YznU2ucoyNt7KkT2WX-148" value="12" style="ellipse;whiteSpace=wrap;html=1;aspect=fixed;shadow=1;fillColor=#60a917;fontColor=#ffffff;strokeColor=none;" parent="n2YznU2ucoyNt7KkT2WX-134" vertex="1">
                    <mxGeometry x="179" y="535" width="40" height="40" as="geometry"/>
                </mxCell>
                <mxCell id="n2YznU2ucoyNt7KkT2WX-149" value="123" style="ellipse;whiteSpace=wrap;html=1;aspect=fixed;shadow=1;fillColor=#60a917;fontColor=#ffffff;strokeColor=none;" parent="n2YznU2ucoyNt7KkT2WX-134" vertex="1">
                    <mxGeometry x="320" y="535" width="40" height="40" as="geometry"/>
                </mxCell>
                <mxCell id="n2YznU2ucoyNt7KkT2WX-150" style="edgeStyle=none;rounded=0;orthogonalLoop=1;jettySize=auto;html=1;exitX=0;exitY=1;exitDx=0;exitDy=0;entryX=1;entryY=0;entryDx=0;entryDy=0;endArrow=none;endFill=0;shadow=1;fillColor=#60a917;" parent="n2YznU2ucoyNt7KkT2WX-134" source="n2YznU2ucoyNt7KkT2WX-151" target="n2YznU2ucoyNt7KkT2WX-152" edge="1">
                    <mxGeometry relative="1" as="geometry"/>
                </mxCell>
                <mxCell id="n2YznU2ucoyNt7KkT2WX-151" value="45" style="ellipse;whiteSpace=wrap;html=1;aspect=fixed;shadow=1;fillColor=#60a917;fontColor=#ffffff;strokeColor=none;" parent="n2YznU2ucoyNt7KkT2WX-134" vertex="1">
                    <mxGeometry x="230" y="595" width="40" height="40" as="geometry"/>
                </mxCell>
                <mxCell id="n2YznU2ucoyNt7KkT2WX-152" value="23" style="ellipse;whiteSpace=wrap;html=1;aspect=fixed;shadow=1;fillColor=#60a917;fontColor=#ffffff;strokeColor=none;" parent="n2YznU2ucoyNt7KkT2WX-134" vertex="1">
                    <mxGeometry x="170" y="665" width="40" height="40" as="geometry"/>
                </mxCell>
                <mxCell id="n2YznU2ucoyNt7KkT2WX-153" value="6" style="ellipse;whiteSpace=wrap;html=1;aspect=fixed;shadow=1;fillColor=#60a917;fontColor=#ffffff;strokeColor=none;" parent="n2YznU2ucoyNt7KkT2WX-134" vertex="1">
                    <mxGeometry x="90" y="585" width="40" height="40" as="geometry"/>
                </mxCell>
                <mxCell id="n2YznU2ucoyNt7KkT2WX-212" style="edgeStyle=none;rounded=0;orthogonalLoop=1;jettySize=auto;html=1;exitX=1;exitY=0.5;exitDx=0;exitDy=0;entryX=0;entryY=0.5;entryDx=0;entryDy=0;endArrow=none;endFill=0;shadow=1;fillColor=#60a917;" parent="n2YznU2ucoyNt7KkT2WX-134" source="n2YznU2ucoyNt7KkT2WX-213" target="n2YznU2ucoyNt7KkT2WX-221" edge="1">
                    <mxGeometry relative="1" as="geometry"/>
                </mxCell>
                <mxCell id="n2YznU2ucoyNt7KkT2WX-213" value="4" style="ellipse;whiteSpace=wrap;html=1;aspect=fixed;shadow=1;fillColor=#60a917;fontColor=#ffffff;strokeColor=none;" parent="n2YznU2ucoyNt7KkT2WX-134" vertex="1">
                    <mxGeometry x="489" y="425" width="40" height="40" as="geometry"/>
                </mxCell>
                <mxCell id="n2YznU2ucoyNt7KkT2WX-214" style="rounded=0;orthogonalLoop=1;jettySize=auto;html=1;exitX=1;exitY=1;exitDx=0;exitDy=0;entryX=0;entryY=0;entryDx=0;entryDy=0;endArrow=none;endFill=0;shadow=1;fillColor=#60a917;" parent="n2YznU2ucoyNt7KkT2WX-134" source="n2YznU2ucoyNt7KkT2WX-215" target="n2YznU2ucoyNt7KkT2WX-217" edge="1">
                    <mxGeometry relative="1" as="geometry"/>
                </mxCell>
                <mxCell id="n2YznU2ucoyNt7KkT2WX-215" value="1" style="ellipse;whiteSpace=wrap;html=1;aspect=fixed;shadow=1;fillColor=#60a917;fontColor=#ffffff;strokeColor=none;" parent="n2YznU2ucoyNt7KkT2WX-134" vertex="1">
                    <mxGeometry x="489" y="265" width="40" height="40" as="geometry"/>
                </mxCell>
                <mxCell id="n2YznU2ucoyNt7KkT2WX-216" style="edgeStyle=none;rounded=0;orthogonalLoop=1;jettySize=auto;html=1;exitX=0;exitY=1;exitDx=0;exitDy=0;entryX=1;entryY=0;entryDx=0;entryDy=0;endArrow=none;endFill=0;shadow=1;fillColor=#60a917;" parent="n2YznU2ucoyNt7KkT2WX-134" source="n2YznU2ucoyNt7KkT2WX-217" target="n2YznU2ucoyNt7KkT2WX-219" edge="1">
                    <mxGeometry relative="1" as="geometry"/>
                </mxCell>
                <mxCell id="n2YznU2ucoyNt7KkT2WX-217" value="450" style="ellipse;whiteSpace=wrap;html=1;aspect=fixed;shadow=1;fillColor=#60a917;fontColor=#ffffff;strokeColor=none;" parent="n2YznU2ucoyNt7KkT2WX-134" vertex="1">
                    <mxGeometry x="529" y="325" width="40" height="40" as="geometry"/>
                </mxCell>
                <mxCell id="n2YznU2ucoyNt7KkT2WX-218" style="edgeStyle=none;rounded=0;orthogonalLoop=1;jettySize=auto;html=1;exitX=1;exitY=1;exitDx=0;exitDy=0;entryX=0;entryY=0.25;entryDx=0;entryDy=0;entryPerimeter=0;endArrow=none;endFill=0;shadow=1;fillColor=#60a917;" parent="n2YznU2ucoyNt7KkT2WX-134" source="n2YznU2ucoyNt7KkT2WX-219" target="n2YznU2ucoyNt7KkT2WX-213" edge="1">
                    <mxGeometry relative="1" as="geometry"/>
                </mxCell>
                <mxCell id="n2YznU2ucoyNt7KkT2WX-219" value="3&lt;br&gt;" style="ellipse;whiteSpace=wrap;html=1;aspect=fixed;shadow=1;fillColor=#60a917;fontColor=#ffffff;strokeColor=none;" parent="n2YznU2ucoyNt7KkT2WX-134" vertex="1">
                    <mxGeometry x="420" y="375" width="40" height="40" as="geometry"/>
                </mxCell>
                <mxCell id="n2YznU2ucoyNt7KkT2WX-220" style="edgeStyle=none;rounded=0;orthogonalLoop=1;jettySize=auto;html=1;exitX=1;exitY=1;exitDx=0;exitDy=0;entryX=0;entryY=0;entryDx=0;entryDy=0;endArrow=none;endFill=0;shadow=1;fillColor=#60a917;" parent="n2YznU2ucoyNt7KkT2WX-134" source="n2YznU2ucoyNt7KkT2WX-221" target="n2YznU2ucoyNt7KkT2WX-226" edge="1">
                    <mxGeometry relative="1" as="geometry"/>
                </mxCell>
                <mxCell id="n2YznU2ucoyNt7KkT2WX-221" value="56" style="ellipse;whiteSpace=wrap;html=1;aspect=fixed;shadow=1;fillColor=#fad9d5;strokeColor=#ae4132;" parent="n2YznU2ucoyNt7KkT2WX-134" vertex="1">
                    <mxGeometry x="580" y="465" width="40" height="40" as="geometry"/>
                </mxCell>
                <mxCell id="n2YznU2ucoyNt7KkT2WX-222" style="edgeStyle=none;rounded=0;orthogonalLoop=1;jettySize=auto;html=1;exitX=0.5;exitY=0;exitDx=0;exitDy=0;entryX=0;entryY=1;entryDx=0;entryDy=0;endArrow=none;endFill=0;shadow=1;fillColor=#60a917;" parent="n2YznU2ucoyNt7KkT2WX-134" source="n2YznU2ucoyNt7KkT2WX-225" target="n2YznU2ucoyNt7KkT2WX-221" edge="1">
                    <mxGeometry relative="1" as="geometry"/>
                </mxCell>
                <mxCell id="n2YznU2ucoyNt7KkT2WX-223" style="edgeStyle=none;rounded=0;orthogonalLoop=1;jettySize=auto;html=1;exitX=1;exitY=1;exitDx=0;exitDy=0;entryX=0;entryY=0;entryDx=0;entryDy=0;endArrow=none;endFill=0;shadow=1;fillColor=#60a917;" parent="n2YznU2ucoyNt7KkT2WX-134" source="n2YznU2ucoyNt7KkT2WX-225" target="n2YznU2ucoyNt7KkT2WX-228" edge="1">
                    <mxGeometry relative="1" as="geometry"/>
                </mxCell>
                <mxCell id="n2YznU2ucoyNt7KkT2WX-224" style="edgeStyle=none;rounded=0;orthogonalLoop=1;jettySize=auto;html=1;exitX=0;exitY=1;exitDx=0;exitDy=0;endArrow=none;endFill=0;shadow=1;fillColor=#60a917;" parent="n2YznU2ucoyNt7KkT2WX-134" source="n2YznU2ucoyNt7KkT2WX-225" target="n2YznU2ucoyNt7KkT2WX-230" edge="1">
                    <mxGeometry relative="1" as="geometry"/>
                </mxCell>
                <mxCell id="n2YznU2ucoyNt7KkT2WX-225" value="12" style="ellipse;whiteSpace=wrap;html=1;aspect=fixed;shadow=1;fillColor=#60a917;fontColor=#ffffff;strokeColor=none;" parent="n2YznU2ucoyNt7KkT2WX-134" vertex="1">
                    <mxGeometry x="529" y="545" width="40" height="40" as="geometry"/>
                </mxCell>
                <mxCell id="n2YznU2ucoyNt7KkT2WX-226" value="123" style="ellipse;whiteSpace=wrap;html=1;aspect=fixed;shadow=1;fillColor=#008a00;fontColor=#ffffff;strokeColor=#005700;" parent="n2YznU2ucoyNt7KkT2WX-134" vertex="1">
                    <mxGeometry x="670" y="545" width="40" height="40" as="geometry"/>
                </mxCell>
                <mxCell id="n2YznU2ucoyNt7KkT2WX-227" style="edgeStyle=none;rounded=0;orthogonalLoop=1;jettySize=auto;html=1;exitX=0;exitY=1;exitDx=0;exitDy=0;entryX=1;entryY=0;entryDx=0;entryDy=0;endArrow=none;endFill=0;shadow=1;fillColor=#60a917;" parent="n2YznU2ucoyNt7KkT2WX-134" source="n2YznU2ucoyNt7KkT2WX-228" target="n2YznU2ucoyNt7KkT2WX-229" edge="1">
                    <mxGeometry relative="1" as="geometry"/>
                </mxCell>
                <mxCell id="n2YznU2ucoyNt7KkT2WX-228" value="45" style="ellipse;whiteSpace=wrap;html=1;aspect=fixed;shadow=1;fillColor=#60a917;fontColor=#ffffff;strokeColor=none;" parent="n2YznU2ucoyNt7KkT2WX-134" vertex="1">
                    <mxGeometry x="580" y="605" width="40" height="40" as="geometry"/>
                </mxCell>
                <mxCell id="n2YznU2ucoyNt7KkT2WX-229" value="23" style="ellipse;whiteSpace=wrap;html=1;aspect=fixed;shadow=1;fillColor=#60a917;fontColor=#ffffff;strokeColor=none;" parent="n2YznU2ucoyNt7KkT2WX-134" vertex="1">
                    <mxGeometry x="520" y="675" width="40" height="40" as="geometry"/>
                </mxCell>
                <mxCell id="n2YznU2ucoyNt7KkT2WX-230" value="6" style="ellipse;whiteSpace=wrap;html=1;aspect=fixed;shadow=1;fillColor=#60a917;fontColor=#ffffff;strokeColor=none;" parent="n2YznU2ucoyNt7KkT2WX-134" vertex="1">
                    <mxGeometry x="440" y="595" width="40" height="40" as="geometry"/>
                </mxCell>
                <mxCell id="n2YznU2ucoyNt7KkT2WX-231" style="edgeStyle=none;rounded=0;orthogonalLoop=1;jettySize=auto;html=1;exitX=1;exitY=0.5;exitDx=0;exitDy=0;entryX=0;entryY=0.5;entryDx=0;entryDy=0;endArrow=none;endFill=0;shadow=1;fillColor=#60a917;" parent="n2YznU2ucoyNt7KkT2WX-134" source="n2YznU2ucoyNt7KkT2WX-232" target="n2YznU2ucoyNt7KkT2WX-240" edge="1">
                    <mxGeometry relative="1" as="geometry"/>
                </mxCell>
                <mxCell id="n2YznU2ucoyNt7KkT2WX-232" value="4" style="ellipse;whiteSpace=wrap;html=1;aspect=fixed;shadow=1;fillColor=#60a917;fontColor=#ffffff;strokeColor=none;" parent="n2YznU2ucoyNt7KkT2WX-134" vertex="1">
                    <mxGeometry x="869" y="420" width="40" height="40" as="geometry"/>
                </mxCell>
                <mxCell id="n2YznU2ucoyNt7KkT2WX-233" style="rounded=0;orthogonalLoop=1;jettySize=auto;html=1;exitX=1;exitY=1;exitDx=0;exitDy=0;entryX=0;entryY=0;entryDx=0;entryDy=0;endArrow=none;endFill=0;shadow=1;fillColor=#60a917;" parent="n2YznU2ucoyNt7KkT2WX-134" source="n2YznU2ucoyNt7KkT2WX-234" target="n2YznU2ucoyNt7KkT2WX-236" edge="1">
                    <mxGeometry relative="1" as="geometry"/>
                </mxCell>
                <mxCell id="n2YznU2ucoyNt7KkT2WX-234" value="1" style="ellipse;whiteSpace=wrap;html=1;aspect=fixed;shadow=1;fillColor=#60a917;fontColor=#ffffff;strokeColor=none;" parent="n2YznU2ucoyNt7KkT2WX-134" vertex="1">
                    <mxGeometry x="869" y="260" width="40" height="40" as="geometry"/>
                </mxCell>
                <mxCell id="n2YznU2ucoyNt7KkT2WX-235" style="edgeStyle=none;rounded=0;orthogonalLoop=1;jettySize=auto;html=1;exitX=0;exitY=1;exitDx=0;exitDy=0;entryX=1;entryY=0;entryDx=0;entryDy=0;endArrow=none;endFill=0;shadow=1;fillColor=#60a917;" parent="n2YznU2ucoyNt7KkT2WX-134" source="n2YznU2ucoyNt7KkT2WX-236" target="n2YznU2ucoyNt7KkT2WX-238" edge="1">
                    <mxGeometry relative="1" as="geometry"/>
                </mxCell>
                <mxCell id="n2YznU2ucoyNt7KkT2WX-236" value="450" style="ellipse;whiteSpace=wrap;html=1;aspect=fixed;shadow=1;fillColor=#60a917;fontColor=#ffffff;strokeColor=none;" parent="n2YznU2ucoyNt7KkT2WX-134" vertex="1">
                    <mxGeometry x="909" y="320" width="40" height="40" as="geometry"/>
                </mxCell>
                <mxCell id="n2YznU2ucoyNt7KkT2WX-237" style="edgeStyle=none;rounded=0;orthogonalLoop=1;jettySize=auto;html=1;exitX=1;exitY=1;exitDx=0;exitDy=0;entryX=0;entryY=0.25;entryDx=0;entryDy=0;entryPerimeter=0;endArrow=none;endFill=0;shadow=1;fillColor=#60a917;" parent="n2YznU2ucoyNt7KkT2WX-134" source="n2YznU2ucoyNt7KkT2WX-238" target="n2YznU2ucoyNt7KkT2WX-232" edge="1">
                    <mxGeometry relative="1" as="geometry"/>
                </mxCell>
                <mxCell id="n2YznU2ucoyNt7KkT2WX-238" value="3&lt;br&gt;" style="ellipse;whiteSpace=wrap;html=1;aspect=fixed;shadow=1;fillColor=#60a917;fontColor=#ffffff;strokeColor=none;" parent="n2YznU2ucoyNt7KkT2WX-134" vertex="1">
                    <mxGeometry x="800" y="370" width="40" height="40" as="geometry"/>
                </mxCell>
                <mxCell id="n2YznU2ucoyNt7KkT2WX-239" style="edgeStyle=none;rounded=0;orthogonalLoop=1;jettySize=auto;html=1;exitX=1;exitY=1;exitDx=0;exitDy=0;entryX=0;entryY=0;entryDx=0;entryDy=0;endArrow=none;endFill=0;shadow=1;fillColor=#60a917;dashed=1;" parent="n2YznU2ucoyNt7KkT2WX-134" source="n2YznU2ucoyNt7KkT2WX-240" target="n2YznU2ucoyNt7KkT2WX-245" edge="1">
                    <mxGeometry relative="1" as="geometry"/>
                </mxCell>
                <mxCell id="n2YznU2ucoyNt7KkT2WX-240" value="123" style="ellipse;whiteSpace=wrap;html=1;aspect=fixed;shadow=1;fillColor=#60a917;strokeColor=#2D7600;fontColor=#ffffff;" parent="n2YznU2ucoyNt7KkT2WX-134" vertex="1">
                    <mxGeometry x="960" y="460" width="40" height="40" as="geometry"/>
                </mxCell>
                <mxCell id="n2YznU2ucoyNt7KkT2WX-241" style="edgeStyle=none;rounded=0;orthogonalLoop=1;jettySize=auto;html=1;exitX=0.5;exitY=0;exitDx=0;exitDy=0;entryX=0;entryY=1;entryDx=0;entryDy=0;endArrow=none;endFill=0;shadow=1;fillColor=#60a917;" parent="n2YznU2ucoyNt7KkT2WX-134" source="n2YznU2ucoyNt7KkT2WX-244" target="n2YznU2ucoyNt7KkT2WX-240" edge="1">
                    <mxGeometry relative="1" as="geometry"/>
                </mxCell>
                <mxCell id="n2YznU2ucoyNt7KkT2WX-242" style="edgeStyle=none;rounded=0;orthogonalLoop=1;jettySize=auto;html=1;exitX=1;exitY=1;exitDx=0;exitDy=0;entryX=0;entryY=0;entryDx=0;entryDy=0;endArrow=none;endFill=0;shadow=1;fillColor=#60a917;" parent="n2YznU2ucoyNt7KkT2WX-134" source="n2YznU2ucoyNt7KkT2WX-244" target="n2YznU2ucoyNt7KkT2WX-247" edge="1">
                    <mxGeometry relative="1" as="geometry"/>
                </mxCell>
                <mxCell id="n2YznU2ucoyNt7KkT2WX-243" style="edgeStyle=none;rounded=0;orthogonalLoop=1;jettySize=auto;html=1;exitX=0;exitY=1;exitDx=0;exitDy=0;endArrow=none;endFill=0;shadow=1;fillColor=#60a917;" parent="n2YznU2ucoyNt7KkT2WX-134" source="n2YznU2ucoyNt7KkT2WX-244" target="n2YznU2ucoyNt7KkT2WX-249" edge="1">
                    <mxGeometry relative="1" as="geometry"/>
                </mxCell>
                <mxCell id="n2YznU2ucoyNt7KkT2WX-244" value="12" style="ellipse;whiteSpace=wrap;html=1;aspect=fixed;shadow=1;fillColor=#60a917;fontColor=#ffffff;strokeColor=none;" parent="n2YznU2ucoyNt7KkT2WX-134" vertex="1">
                    <mxGeometry x="909" y="540" width="40" height="40" as="geometry"/>
                </mxCell>
                <mxCell id="n2YznU2ucoyNt7KkT2WX-245" value="56" style="ellipse;whiteSpace=wrap;html=1;aspect=fixed;shadow=1;fillColor=#fad9d5;strokeColor=#ae4132;" parent="n2YznU2ucoyNt7KkT2WX-134" vertex="1">
                    <mxGeometry x="1050" y="540" width="40" height="40" as="geometry"/>
                </mxCell>
                <mxCell id="n2YznU2ucoyNt7KkT2WX-246" style="edgeStyle=none;rounded=0;orthogonalLoop=1;jettySize=auto;html=1;exitX=0;exitY=1;exitDx=0;exitDy=0;entryX=1;entryY=0;entryDx=0;entryDy=0;endArrow=none;endFill=0;shadow=1;fillColor=#60a917;" parent="n2YznU2ucoyNt7KkT2WX-134" source="n2YznU2ucoyNt7KkT2WX-247" target="n2YznU2ucoyNt7KkT2WX-248" edge="1">
                    <mxGeometry relative="1" as="geometry"/>
                </mxCell>
                <mxCell id="n2YznU2ucoyNt7KkT2WX-247" value="45" style="ellipse;whiteSpace=wrap;html=1;aspect=fixed;shadow=1;fillColor=#60a917;fontColor=#ffffff;strokeColor=none;" parent="n2YznU2ucoyNt7KkT2WX-134" vertex="1">
                    <mxGeometry x="960" y="600" width="40" height="40" as="geometry"/>
                </mxCell>
                <mxCell id="n2YznU2ucoyNt7KkT2WX-248" value="23" style="ellipse;whiteSpace=wrap;html=1;aspect=fixed;shadow=1;fillColor=#60a917;fontColor=#ffffff;strokeColor=none;" parent="n2YznU2ucoyNt7KkT2WX-134" vertex="1">
                    <mxGeometry x="900" y="670" width="40" height="40" as="geometry"/>
                </mxCell>
                <mxCell id="n2YznU2ucoyNt7KkT2WX-249" value="6" style="ellipse;whiteSpace=wrap;html=1;aspect=fixed;shadow=1;fillColor=#60a917;fontColor=#ffffff;strokeColor=none;" parent="n2YznU2ucoyNt7KkT2WX-134" vertex="1">
                    <mxGeometry x="820" y="590" width="40" height="40" as="geometry"/>
                </mxCell>
                <object label="bst-delete-4" id="n2YznU2ucoyNt7KkT2WX-173">
                    <mxCell parent="0" visible="0"/>
                </object>
                <mxCell id="n2YznU2ucoyNt7KkT2WX-174" style="edgeStyle=none;rounded=0;orthogonalLoop=1;jettySize=auto;html=1;exitX=1;exitY=0.5;exitDx=0;exitDy=0;entryX=0;entryY=0.5;entryDx=0;entryDy=0;endArrow=none;endFill=0;shadow=1;fillColor=#60a917;" parent="n2YznU2ucoyNt7KkT2WX-173" source="n2YznU2ucoyNt7KkT2WX-175" target="n2YznU2ucoyNt7KkT2WX-183" edge="1">
                    <mxGeometry relative="1" as="geometry"/>
                </mxCell>
                <mxCell id="n2YznU2ucoyNt7KkT2WX-175" value="4" style="ellipse;whiteSpace=wrap;html=1;aspect=fixed;shadow=1;fillColor=#60a917;fontColor=#ffffff;strokeColor=none;" parent="n2YznU2ucoyNt7KkT2WX-173" vertex="1">
                    <mxGeometry x="139" y="930" width="40" height="40" as="geometry"/>
                </mxCell>
                <mxCell id="n2YznU2ucoyNt7KkT2WX-176" style="rounded=0;orthogonalLoop=1;jettySize=auto;html=1;exitX=1;exitY=1;exitDx=0;exitDy=0;entryX=0;entryY=0;entryDx=0;entryDy=0;endArrow=none;endFill=0;shadow=1;fillColor=#60a917;" parent="n2YznU2ucoyNt7KkT2WX-173" source="n2YznU2ucoyNt7KkT2WX-177" target="n2YznU2ucoyNt7KkT2WX-179" edge="1">
                    <mxGeometry relative="1" as="geometry"/>
                </mxCell>
                <mxCell id="n2YznU2ucoyNt7KkT2WX-177" value="1" style="ellipse;whiteSpace=wrap;html=1;aspect=fixed;shadow=1;fillColor=#60a917;fontColor=#ffffff;strokeColor=none;" parent="n2YznU2ucoyNt7KkT2WX-173" vertex="1">
                    <mxGeometry x="139" y="770" width="40" height="40" as="geometry"/>
                </mxCell>
                <mxCell id="n2YznU2ucoyNt7KkT2WX-178" style="edgeStyle=none;rounded=0;orthogonalLoop=1;jettySize=auto;html=1;exitX=0;exitY=1;exitDx=0;exitDy=0;entryX=1;entryY=0;entryDx=0;entryDy=0;endArrow=none;endFill=0;shadow=1;fillColor=#60a917;" parent="n2YznU2ucoyNt7KkT2WX-173" source="n2YznU2ucoyNt7KkT2WX-179" target="n2YznU2ucoyNt7KkT2WX-181" edge="1">
                    <mxGeometry relative="1" as="geometry"/>
                </mxCell>
                <mxCell id="n2YznU2ucoyNt7KkT2WX-179" value="450" style="ellipse;whiteSpace=wrap;html=1;aspect=fixed;shadow=1;fillColor=#60a917;fontColor=#ffffff;strokeColor=none;" parent="n2YznU2ucoyNt7KkT2WX-173" vertex="1">
                    <mxGeometry x="179" y="830" width="40" height="40" as="geometry"/>
                </mxCell>
                <mxCell id="n2YznU2ucoyNt7KkT2WX-180" style="edgeStyle=none;rounded=0;orthogonalLoop=1;jettySize=auto;html=1;exitX=1;exitY=1;exitDx=0;exitDy=0;entryX=0;entryY=0.25;entryDx=0;entryDy=0;entryPerimeter=0;endArrow=none;endFill=0;shadow=1;fillColor=#60a917;" parent="n2YznU2ucoyNt7KkT2WX-173" source="n2YznU2ucoyNt7KkT2WX-181" target="n2YznU2ucoyNt7KkT2WX-175" edge="1">
                    <mxGeometry relative="1" as="geometry"/>
                </mxCell>
                <mxCell id="n2YznU2ucoyNt7KkT2WX-181" value="3&lt;br&gt;" style="ellipse;whiteSpace=wrap;html=1;aspect=fixed;shadow=1;fillColor=#60a917;fontColor=#ffffff;strokeColor=none;" parent="n2YznU2ucoyNt7KkT2WX-173" vertex="1">
                    <mxGeometry x="70" y="880" width="40" height="40" as="geometry"/>
                </mxCell>
                <mxCell id="n2YznU2ucoyNt7KkT2WX-182" style="edgeStyle=none;rounded=0;orthogonalLoop=1;jettySize=auto;html=1;exitX=1;exitY=1;exitDx=0;exitDy=0;entryX=0;entryY=0;entryDx=0;entryDy=0;endArrow=none;endFill=0;shadow=1;fillColor=#60a917;" parent="n2YznU2ucoyNt7KkT2WX-173" source="n2YznU2ucoyNt7KkT2WX-183" target="n2YznU2ucoyNt7KkT2WX-188" edge="1">
                    <mxGeometry relative="1" as="geometry"/>
                </mxCell>
                <mxCell id="n2YznU2ucoyNt7KkT2WX-183" value="56" style="ellipse;whiteSpace=wrap;html=1;aspect=fixed;shadow=1;fillColor=#60a917;fontColor=#ffffff;strokeColor=none;" parent="n2YznU2ucoyNt7KkT2WX-173" vertex="1">
                    <mxGeometry x="230" y="970" width="40" height="40" as="geometry"/>
                </mxCell>
                <mxCell id="n2YznU2ucoyNt7KkT2WX-184" style="edgeStyle=none;rounded=0;orthogonalLoop=1;jettySize=auto;html=1;exitX=0.5;exitY=0;exitDx=0;exitDy=0;entryX=0;entryY=1;entryDx=0;entryDy=0;endArrow=none;endFill=0;shadow=1;fillColor=#60a917;" parent="n2YznU2ucoyNt7KkT2WX-173" source="n2YznU2ucoyNt7KkT2WX-187" target="n2YznU2ucoyNt7KkT2WX-183" edge="1">
                    <mxGeometry relative="1" as="geometry"/>
                </mxCell>
                <mxCell id="n2YznU2ucoyNt7KkT2WX-185" style="edgeStyle=none;rounded=0;orthogonalLoop=1;jettySize=auto;html=1;exitX=1;exitY=1;exitDx=0;exitDy=0;entryX=0;entryY=0;entryDx=0;entryDy=0;endArrow=none;endFill=0;shadow=1;fillColor=#60a917;" parent="n2YznU2ucoyNt7KkT2WX-173" source="n2YznU2ucoyNt7KkT2WX-187" target="n2YznU2ucoyNt7KkT2WX-190" edge="1">
                    <mxGeometry relative="1" as="geometry"/>
                </mxCell>
                <mxCell id="n2YznU2ucoyNt7KkT2WX-186" style="edgeStyle=none;rounded=0;orthogonalLoop=1;jettySize=auto;html=1;exitX=0;exitY=1;exitDx=0;exitDy=0;endArrow=none;endFill=0;shadow=1;fillColor=#60a917;" parent="n2YznU2ucoyNt7KkT2WX-173" source="n2YznU2ucoyNt7KkT2WX-187" target="n2YznU2ucoyNt7KkT2WX-192" edge="1">
                    <mxGeometry relative="1" as="geometry"/>
                </mxCell>
                <mxCell id="n2YznU2ucoyNt7KkT2WX-187" value="12" style="ellipse;whiteSpace=wrap;html=1;aspect=fixed;shadow=1;fillColor=#fad9d5;strokeColor=#ae4132;" parent="n2YznU2ucoyNt7KkT2WX-173" vertex="1">
                    <mxGeometry x="179" y="1050" width="40" height="40" as="geometry"/>
                </mxCell>
                <mxCell id="n2YznU2ucoyNt7KkT2WX-188" value="123" style="ellipse;whiteSpace=wrap;html=1;aspect=fixed;shadow=1;fillColor=#60a917;fontColor=#ffffff;strokeColor=none;" parent="n2YznU2ucoyNt7KkT2WX-173" vertex="1">
                    <mxGeometry x="320" y="1050" width="40" height="40" as="geometry"/>
                </mxCell>
                <mxCell id="n2YznU2ucoyNt7KkT2WX-189" style="edgeStyle=none;rounded=0;orthogonalLoop=1;jettySize=auto;html=1;exitX=0;exitY=1;exitDx=0;exitDy=0;entryX=1;entryY=0;entryDx=0;entryDy=0;endArrow=none;endFill=0;shadow=1;fillColor=#60a917;" parent="n2YznU2ucoyNt7KkT2WX-173" source="n2YznU2ucoyNt7KkT2WX-190" target="n2YznU2ucoyNt7KkT2WX-191" edge="1">
                    <mxGeometry relative="1" as="geometry"/>
                </mxCell>
                <mxCell id="n2YznU2ucoyNt7KkT2WX-190" value="45" style="ellipse;whiteSpace=wrap;html=1;aspect=fixed;shadow=1;fillColor=#60a917;fontColor=#ffffff;strokeColor=none;" parent="n2YznU2ucoyNt7KkT2WX-173" vertex="1">
                    <mxGeometry x="230" y="1110" width="40" height="40" as="geometry"/>
                </mxCell>
                <mxCell id="n2YznU2ucoyNt7KkT2WX-289" style="edgeStyle=none;rounded=0;orthogonalLoop=1;jettySize=auto;html=1;exitX=1;exitY=1;exitDx=0;exitDy=0;entryX=0;entryY=0;entryDx=0;entryDy=0;shadow=1;endArrow=none;endFill=0;strokeColor=#004C99;" parent="n2YznU2ucoyNt7KkT2WX-173" source="n2YznU2ucoyNt7KkT2WX-191" target="n2YznU2ucoyNt7KkT2WX-288" edge="1">
                    <mxGeometry relative="1" as="geometry"/>
                </mxCell>
                <mxCell id="n2YznU2ucoyNt7KkT2WX-191" value="23" style="ellipse;whiteSpace=wrap;html=1;aspect=fixed;shadow=1;fillColor=#60a917;fontColor=#ffffff;strokeColor=none;" parent="n2YznU2ucoyNt7KkT2WX-173" vertex="1">
                    <mxGeometry x="170" y="1180" width="40" height="40" as="geometry"/>
                </mxCell>
                <mxCell id="n2YznU2ucoyNt7KkT2WX-192" value="6" style="ellipse;whiteSpace=wrap;html=1;aspect=fixed;shadow=1;fillColor=#60a917;fontColor=#ffffff;strokeColor=none;" parent="n2YznU2ucoyNt7KkT2WX-173" vertex="1">
                    <mxGeometry x="90" y="1100" width="40" height="40" as="geometry"/>
                </mxCell>
                <mxCell id="n2YznU2ucoyNt7KkT2WX-250" style="edgeStyle=none;rounded=0;orthogonalLoop=1;jettySize=auto;html=1;exitX=1;exitY=0.5;exitDx=0;exitDy=0;entryX=0;entryY=0.5;entryDx=0;entryDy=0;endArrow=none;endFill=0;shadow=1;fillColor=#60a917;" parent="n2YznU2ucoyNt7KkT2WX-173" source="n2YznU2ucoyNt7KkT2WX-251" target="n2YznU2ucoyNt7KkT2WX-259" edge="1">
                    <mxGeometry relative="1" as="geometry"/>
                </mxCell>
                <mxCell id="n2YznU2ucoyNt7KkT2WX-251" value="4" style="ellipse;whiteSpace=wrap;html=1;aspect=fixed;shadow=1;fillColor=#60a917;fontColor=#ffffff;strokeColor=none;" parent="n2YznU2ucoyNt7KkT2WX-173" vertex="1">
                    <mxGeometry x="509" y="940" width="40" height="40" as="geometry"/>
                </mxCell>
                <mxCell id="n2YznU2ucoyNt7KkT2WX-252" style="rounded=0;orthogonalLoop=1;jettySize=auto;html=1;exitX=1;exitY=1;exitDx=0;exitDy=0;entryX=0;entryY=0;entryDx=0;entryDy=0;endArrow=none;endFill=0;shadow=1;fillColor=#60a917;" parent="n2YznU2ucoyNt7KkT2WX-173" source="n2YznU2ucoyNt7KkT2WX-253" target="n2YznU2ucoyNt7KkT2WX-255" edge="1">
                    <mxGeometry relative="1" as="geometry"/>
                </mxCell>
                <mxCell id="n2YznU2ucoyNt7KkT2WX-253" value="1" style="ellipse;whiteSpace=wrap;html=1;aspect=fixed;shadow=1;fillColor=#60a917;fontColor=#ffffff;strokeColor=none;" parent="n2YznU2ucoyNt7KkT2WX-173" vertex="1">
                    <mxGeometry x="509" y="780" width="40" height="40" as="geometry"/>
                </mxCell>
                <mxCell id="n2YznU2ucoyNt7KkT2WX-254" style="edgeStyle=none;rounded=0;orthogonalLoop=1;jettySize=auto;html=1;exitX=0;exitY=1;exitDx=0;exitDy=0;entryX=1;entryY=0;entryDx=0;entryDy=0;endArrow=none;endFill=0;shadow=1;fillColor=#60a917;" parent="n2YznU2ucoyNt7KkT2WX-173" source="n2YznU2ucoyNt7KkT2WX-255" target="n2YznU2ucoyNt7KkT2WX-257" edge="1">
                    <mxGeometry relative="1" as="geometry"/>
                </mxCell>
                <mxCell id="n2YznU2ucoyNt7KkT2WX-255" value="450" style="ellipse;whiteSpace=wrap;html=1;aspect=fixed;shadow=1;fillColor=#60a917;fontColor=#ffffff;strokeColor=none;" parent="n2YznU2ucoyNt7KkT2WX-173" vertex="1">
                    <mxGeometry x="549" y="840" width="40" height="40" as="geometry"/>
                </mxCell>
                <mxCell id="n2YznU2ucoyNt7KkT2WX-256" style="edgeStyle=none;rounded=0;orthogonalLoop=1;jettySize=auto;html=1;exitX=1;exitY=1;exitDx=0;exitDy=0;entryX=0;entryY=0.25;entryDx=0;entryDy=0;entryPerimeter=0;endArrow=none;endFill=0;shadow=1;fillColor=#60a917;" parent="n2YznU2ucoyNt7KkT2WX-173" source="n2YznU2ucoyNt7KkT2WX-257" target="n2YznU2ucoyNt7KkT2WX-251" edge="1">
                    <mxGeometry relative="1" as="geometry"/>
                </mxCell>
                <mxCell id="n2YznU2ucoyNt7KkT2WX-257" value="3&lt;br&gt;" style="ellipse;whiteSpace=wrap;html=1;aspect=fixed;shadow=1;fillColor=#60a917;fontColor=#ffffff;strokeColor=none;" parent="n2YznU2ucoyNt7KkT2WX-173" vertex="1">
                    <mxGeometry x="440" y="890" width="40" height="40" as="geometry"/>
                </mxCell>
                <mxCell id="n2YznU2ucoyNt7KkT2WX-258" style="edgeStyle=none;rounded=0;orthogonalLoop=1;jettySize=auto;html=1;exitX=1;exitY=1;exitDx=0;exitDy=0;entryX=0;entryY=0;entryDx=0;entryDy=0;endArrow=none;endFill=0;shadow=1;fillColor=#60a917;" parent="n2YznU2ucoyNt7KkT2WX-173" source="n2YznU2ucoyNt7KkT2WX-259" target="n2YznU2ucoyNt7KkT2WX-264" edge="1">
                    <mxGeometry relative="1" as="geometry"/>
                </mxCell>
                <mxCell id="n2YznU2ucoyNt7KkT2WX-259" value="56" style="ellipse;whiteSpace=wrap;html=1;aspect=fixed;shadow=1;fillColor=#60a917;fontColor=#ffffff;strokeColor=none;" parent="n2YznU2ucoyNt7KkT2WX-173" vertex="1">
                    <mxGeometry x="600" y="980" width="40" height="40" as="geometry"/>
                </mxCell>
                <mxCell id="n2YznU2ucoyNt7KkT2WX-260" style="edgeStyle=none;rounded=0;orthogonalLoop=1;jettySize=auto;html=1;exitX=0.5;exitY=0;exitDx=0;exitDy=0;entryX=0;entryY=1;entryDx=0;entryDy=0;endArrow=none;endFill=0;shadow=1;fillColor=#60a917;" parent="n2YznU2ucoyNt7KkT2WX-173" source="n2YznU2ucoyNt7KkT2WX-263" target="n2YznU2ucoyNt7KkT2WX-259" edge="1">
                    <mxGeometry relative="1" as="geometry"/>
                </mxCell>
                <mxCell id="n2YznU2ucoyNt7KkT2WX-261" style="edgeStyle=none;rounded=0;orthogonalLoop=1;jettySize=auto;html=1;exitX=1;exitY=1;exitDx=0;exitDy=0;entryX=0;entryY=0;entryDx=0;entryDy=0;endArrow=none;endFill=0;shadow=1;fillColor=#60a917;" parent="n2YznU2ucoyNt7KkT2WX-173" source="n2YznU2ucoyNt7KkT2WX-263" target="n2YznU2ucoyNt7KkT2WX-266" edge="1">
                    <mxGeometry relative="1" as="geometry"/>
                </mxCell>
                <mxCell id="n2YznU2ucoyNt7KkT2WX-262" style="edgeStyle=none;rounded=0;orthogonalLoop=1;jettySize=auto;html=1;exitX=0;exitY=1;exitDx=0;exitDy=0;endArrow=none;endFill=0;shadow=1;fillColor=#60a917;" parent="n2YznU2ucoyNt7KkT2WX-173" source="n2YznU2ucoyNt7KkT2WX-263" target="n2YznU2ucoyNt7KkT2WX-268" edge="1">
                    <mxGeometry relative="1" as="geometry"/>
                </mxCell>
                <mxCell id="n2YznU2ucoyNt7KkT2WX-263" value="12" style="ellipse;whiteSpace=wrap;html=1;aspect=fixed;shadow=1;fillColor=#fad9d5;strokeColor=#ae4132;" parent="n2YznU2ucoyNt7KkT2WX-173" vertex="1">
                    <mxGeometry x="549" y="1060" width="40" height="40" as="geometry"/>
                </mxCell>
                <mxCell id="n2YznU2ucoyNt7KkT2WX-264" value="123" style="ellipse;whiteSpace=wrap;html=1;aspect=fixed;shadow=1;fillColor=#60a917;fontColor=#ffffff;strokeColor=none;" parent="n2YznU2ucoyNt7KkT2WX-173" vertex="1">
                    <mxGeometry x="690" y="1060" width="40" height="40" as="geometry"/>
                </mxCell>
                <mxCell id="n2YznU2ucoyNt7KkT2WX-265" style="edgeStyle=none;rounded=0;orthogonalLoop=1;jettySize=auto;html=1;exitX=0;exitY=1;exitDx=0;exitDy=0;entryX=1;entryY=0;entryDx=0;entryDy=0;endArrow=none;endFill=0;shadow=1;fillColor=#60a917;" parent="n2YznU2ucoyNt7KkT2WX-173" source="n2YznU2ucoyNt7KkT2WX-266" target="n2YznU2ucoyNt7KkT2WX-267" edge="1">
                    <mxGeometry relative="1" as="geometry"/>
                </mxCell>
                <mxCell id="n2YznU2ucoyNt7KkT2WX-266" value="45" style="ellipse;whiteSpace=wrap;html=1;aspect=fixed;shadow=1;fillColor=#60a917;fontColor=#ffffff;strokeColor=none;" parent="n2YznU2ucoyNt7KkT2WX-173" vertex="1">
                    <mxGeometry x="600" y="1120" width="40" height="40" as="geometry"/>
                </mxCell>
                <mxCell id="n2YznU2ucoyNt7KkT2WX-292" style="edgeStyle=none;rounded=0;orthogonalLoop=1;jettySize=auto;html=1;exitX=1;exitY=1;exitDx=0;exitDy=0;entryX=0;entryY=0;entryDx=0;entryDy=0;shadow=1;endArrow=none;endFill=0;strokeColor=#004C99;" parent="n2YznU2ucoyNt7KkT2WX-173" source="n2YznU2ucoyNt7KkT2WX-267" target="n2YznU2ucoyNt7KkT2WX-290" edge="1">
                    <mxGeometry relative="1" as="geometry"/>
                </mxCell>
                <mxCell id="n2YznU2ucoyNt7KkT2WX-267" value="23" style="ellipse;whiteSpace=wrap;html=1;aspect=fixed;shadow=1;fillColor=#a20025;fontColor=#ffffff;strokeColor=#6F0000;" parent="n2YznU2ucoyNt7KkT2WX-173" vertex="1">
                    <mxGeometry x="540" y="1190" width="40" height="40" as="geometry"/>
                </mxCell>
                <mxCell id="n2YznU2ucoyNt7KkT2WX-268" value="6" style="ellipse;whiteSpace=wrap;html=1;aspect=fixed;shadow=1;fillColor=#60a917;fontColor=#ffffff;strokeColor=none;" parent="n2YznU2ucoyNt7KkT2WX-173" vertex="1">
                    <mxGeometry x="460" y="1110" width="40" height="40" as="geometry"/>
                </mxCell>
                <mxCell id="n2YznU2ucoyNt7KkT2WX-269" style="edgeStyle=none;rounded=0;orthogonalLoop=1;jettySize=auto;html=1;exitX=1;exitY=0.5;exitDx=0;exitDy=0;entryX=0;entryY=0.5;entryDx=0;entryDy=0;endArrow=none;endFill=0;shadow=1;fillColor=#60a917;" parent="n2YznU2ucoyNt7KkT2WX-173" source="n2YznU2ucoyNt7KkT2WX-270" target="n2YznU2ucoyNt7KkT2WX-278" edge="1">
                    <mxGeometry relative="1" as="geometry"/>
                </mxCell>
                <mxCell id="n2YznU2ucoyNt7KkT2WX-270" value="4" style="ellipse;whiteSpace=wrap;html=1;aspect=fixed;shadow=1;fillColor=#60a917;fontColor=#ffffff;strokeColor=none;" parent="n2YznU2ucoyNt7KkT2WX-173" vertex="1">
                    <mxGeometry x="896" y="960" width="40" height="40" as="geometry"/>
                </mxCell>
                <mxCell id="n2YznU2ucoyNt7KkT2WX-271" style="rounded=0;orthogonalLoop=1;jettySize=auto;html=1;exitX=1;exitY=1;exitDx=0;exitDy=0;entryX=0;entryY=0;entryDx=0;entryDy=0;endArrow=none;endFill=0;shadow=1;fillColor=#60a917;" parent="n2YznU2ucoyNt7KkT2WX-173" source="n2YznU2ucoyNt7KkT2WX-272" target="n2YznU2ucoyNt7KkT2WX-274" edge="1">
                    <mxGeometry relative="1" as="geometry"/>
                </mxCell>
                <mxCell id="n2YznU2ucoyNt7KkT2WX-272" value="1" style="ellipse;whiteSpace=wrap;html=1;aspect=fixed;shadow=1;fillColor=#60a917;fontColor=#ffffff;strokeColor=none;" parent="n2YznU2ucoyNt7KkT2WX-173" vertex="1">
                    <mxGeometry x="896" y="800" width="40" height="40" as="geometry"/>
                </mxCell>
                <mxCell id="n2YznU2ucoyNt7KkT2WX-273" style="edgeStyle=none;rounded=0;orthogonalLoop=1;jettySize=auto;html=1;exitX=0;exitY=1;exitDx=0;exitDy=0;entryX=1;entryY=0;entryDx=0;entryDy=0;endArrow=none;endFill=0;shadow=1;fillColor=#60a917;" parent="n2YznU2ucoyNt7KkT2WX-173" source="n2YznU2ucoyNt7KkT2WX-274" target="n2YznU2ucoyNt7KkT2WX-276" edge="1">
                    <mxGeometry relative="1" as="geometry"/>
                </mxCell>
                <mxCell id="n2YznU2ucoyNt7KkT2WX-274" value="450" style="ellipse;whiteSpace=wrap;html=1;aspect=fixed;shadow=1;fillColor=#60a917;fontColor=#ffffff;strokeColor=none;" parent="n2YznU2ucoyNt7KkT2WX-173" vertex="1">
                    <mxGeometry x="936" y="860" width="40" height="40" as="geometry"/>
                </mxCell>
                <mxCell id="n2YznU2ucoyNt7KkT2WX-275" style="edgeStyle=none;rounded=0;orthogonalLoop=1;jettySize=auto;html=1;exitX=1;exitY=1;exitDx=0;exitDy=0;entryX=0;entryY=0.25;entryDx=0;entryDy=0;entryPerimeter=0;endArrow=none;endFill=0;shadow=1;fillColor=#60a917;" parent="n2YznU2ucoyNt7KkT2WX-173" source="n2YznU2ucoyNt7KkT2WX-276" target="n2YznU2ucoyNt7KkT2WX-270" edge="1">
                    <mxGeometry relative="1" as="geometry"/>
                </mxCell>
                <mxCell id="n2YznU2ucoyNt7KkT2WX-276" value="3&lt;br&gt;" style="ellipse;whiteSpace=wrap;html=1;aspect=fixed;shadow=1;fillColor=#60a917;fontColor=#ffffff;strokeColor=none;" parent="n2YznU2ucoyNt7KkT2WX-173" vertex="1">
                    <mxGeometry x="827" y="910" width="40" height="40" as="geometry"/>
                </mxCell>
                <mxCell id="n2YznU2ucoyNt7KkT2WX-277" style="edgeStyle=none;rounded=0;orthogonalLoop=1;jettySize=auto;html=1;exitX=1;exitY=1;exitDx=0;exitDy=0;entryX=0;entryY=0;entryDx=0;entryDy=0;endArrow=none;endFill=0;shadow=1;fillColor=#60a917;" parent="n2YznU2ucoyNt7KkT2WX-173" source="n2YznU2ucoyNt7KkT2WX-278" target="n2YznU2ucoyNt7KkT2WX-283" edge="1">
                    <mxGeometry relative="1" as="geometry"/>
                </mxCell>
                <mxCell id="n2YznU2ucoyNt7KkT2WX-278" value="56" style="ellipse;whiteSpace=wrap;html=1;aspect=fixed;shadow=1;fillColor=#60a917;fontColor=#ffffff;strokeColor=none;" parent="n2YznU2ucoyNt7KkT2WX-173" vertex="1">
                    <mxGeometry x="987" y="1000" width="40" height="40" as="geometry"/>
                </mxCell>
                <mxCell id="n2YznU2ucoyNt7KkT2WX-279" style="edgeStyle=none;rounded=0;orthogonalLoop=1;jettySize=auto;html=1;exitX=0.5;exitY=0;exitDx=0;exitDy=0;entryX=0;entryY=1;entryDx=0;entryDy=0;endArrow=none;endFill=0;shadow=1;fillColor=#60a917;" parent="n2YznU2ucoyNt7KkT2WX-173" source="n2YznU2ucoyNt7KkT2WX-282" target="n2YznU2ucoyNt7KkT2WX-278" edge="1">
                    <mxGeometry relative="1" as="geometry"/>
                </mxCell>
                <mxCell id="n2YznU2ucoyNt7KkT2WX-280" style="edgeStyle=none;rounded=0;orthogonalLoop=1;jettySize=auto;html=1;exitX=1;exitY=1;exitDx=0;exitDy=0;entryX=0;entryY=0;entryDx=0;entryDy=0;endArrow=none;endFill=0;shadow=1;fillColor=#60a917;" parent="n2YznU2ucoyNt7KkT2WX-173" source="n2YznU2ucoyNt7KkT2WX-282" target="n2YznU2ucoyNt7KkT2WX-285" edge="1">
                    <mxGeometry relative="1" as="geometry"/>
                </mxCell>
                <mxCell id="n2YznU2ucoyNt7KkT2WX-281" style="edgeStyle=none;rounded=0;orthogonalLoop=1;jettySize=auto;html=1;exitX=0;exitY=1;exitDx=0;exitDy=0;endArrow=none;endFill=0;shadow=1;fillColor=#60a917;" parent="n2YznU2ucoyNt7KkT2WX-173" source="n2YznU2ucoyNt7KkT2WX-282" target="n2YznU2ucoyNt7KkT2WX-287" edge="1">
                    <mxGeometry relative="1" as="geometry"/>
                </mxCell>
                <mxCell id="n2YznU2ucoyNt7KkT2WX-282" value="23" style="ellipse;whiteSpace=wrap;html=1;aspect=fixed;shadow=1;fillColor=#60a917;strokeColor=#2D7600;fontColor=#ffffff;" parent="n2YznU2ucoyNt7KkT2WX-173" vertex="1">
                    <mxGeometry x="936" y="1080" width="40" height="40" as="geometry"/>
                </mxCell>
                <mxCell id="n2YznU2ucoyNt7KkT2WX-283" value="123" style="ellipse;whiteSpace=wrap;html=1;aspect=fixed;shadow=1;fillColor=#60a917;fontColor=#ffffff;strokeColor=none;" parent="n2YznU2ucoyNt7KkT2WX-173" vertex="1">
                    <mxGeometry x="1077" y="1080" width="40" height="40" as="geometry"/>
                </mxCell>
                <mxCell id="n2YznU2ucoyNt7KkT2WX-284" style="edgeStyle=none;rounded=0;orthogonalLoop=1;jettySize=auto;html=1;exitX=0;exitY=1;exitDx=0;exitDy=0;entryX=1;entryY=0;entryDx=0;entryDy=0;endArrow=none;endFill=0;shadow=1;fillColor=#60a917;" parent="n2YznU2ucoyNt7KkT2WX-173" source="n2YznU2ucoyNt7KkT2WX-285" target="n2YznU2ucoyNt7KkT2WX-286" edge="1">
                    <mxGeometry relative="1" as="geometry"/>
                </mxCell>
                <mxCell id="n2YznU2ucoyNt7KkT2WX-285" value="45" style="ellipse;whiteSpace=wrap;html=1;aspect=fixed;shadow=1;fillColor=#60a917;fontColor=#ffffff;strokeColor=none;" parent="n2YznU2ucoyNt7KkT2WX-173" vertex="1">
                    <mxGeometry x="987" y="1140" width="40" height="40" as="geometry"/>
                </mxCell>
                <mxCell id="n2YznU2ucoyNt7KkT2WX-293" style="edgeStyle=none;rounded=0;orthogonalLoop=1;jettySize=auto;html=1;exitX=1;exitY=1;exitDx=0;exitDy=0;entryX=0;entryY=0;entryDx=0;entryDy=0;shadow=1;endArrow=none;endFill=0;strokeColor=#004C99;" parent="n2YznU2ucoyNt7KkT2WX-173" source="n2YznU2ucoyNt7KkT2WX-286" target="n2YznU2ucoyNt7KkT2WX-291" edge="1">
                    <mxGeometry relative="1" as="geometry"/>
                </mxCell>
                <mxCell id="n2YznU2ucoyNt7KkT2WX-286" value="12" style="ellipse;whiteSpace=wrap;html=1;aspect=fixed;shadow=1;fillColor=#fad9d5;strokeColor=#ae4132;" parent="n2YznU2ucoyNt7KkT2WX-173" vertex="1">
                    <mxGeometry x="927" y="1210" width="40" height="40" as="geometry"/>
                </mxCell>
                <mxCell id="n2YznU2ucoyNt7KkT2WX-287" value="6" style="ellipse;whiteSpace=wrap;html=1;aspect=fixed;shadow=1;fillColor=#60a917;fontColor=#ffffff;strokeColor=none;" parent="n2YznU2ucoyNt7KkT2WX-173" vertex="1">
                    <mxGeometry x="847" y="1130" width="40" height="40" as="geometry"/>
                </mxCell>
                <mxCell id="n2YznU2ucoyNt7KkT2WX-288" value="24" style="ellipse;whiteSpace=wrap;html=1;aspect=fixed;shadow=1;fillColor=#60a917;fontColor=#ffffff;strokeColor=none;" parent="n2YznU2ucoyNt7KkT2WX-173" vertex="1">
                    <mxGeometry x="230" y="1230" width="40" height="40" as="geometry"/>
                </mxCell>
                <mxCell id="n2YznU2ucoyNt7KkT2WX-290" value="24" style="ellipse;whiteSpace=wrap;html=1;aspect=fixed;shadow=1;fillColor=#60a917;fontColor=#ffffff;strokeColor=none;" parent="n2YznU2ucoyNt7KkT2WX-173" vertex="1">
                    <mxGeometry x="600" y="1240" width="40" height="40" as="geometry"/>
                </mxCell>
                <mxCell id="n2YznU2ucoyNt7KkT2WX-291" value="24" style="ellipse;whiteSpace=wrap;html=1;aspect=fixed;shadow=1;fillColor=#60a917;fontColor=#ffffff;strokeColor=none;" parent="n2YznU2ucoyNt7KkT2WX-173" vertex="1">
                    <mxGeometry x="1000" y="1250" width="40" height="40" as="geometry"/>
                </mxCell>
                <mxCell id="n2YznU2ucoyNt7KkT2WX-294" style="edgeStyle=none;rounded=0;orthogonalLoop=1;jettySize=auto;html=1;exitX=1;exitY=0.5;exitDx=0;exitDy=0;entryX=0;entryY=0.5;entryDx=0;entryDy=0;endArrow=none;endFill=0;shadow=1;fillColor=#60a917;" parent="n2YznU2ucoyNt7KkT2WX-173" source="n2YznU2ucoyNt7KkT2WX-295" target="n2YznU2ucoyNt7KkT2WX-303" edge="1">
                    <mxGeometry relative="1" as="geometry"/>
                </mxCell>
                <mxCell id="n2YznU2ucoyNt7KkT2WX-295" value="4" style="ellipse;whiteSpace=wrap;html=1;aspect=fixed;shadow=1;fillColor=#60a917;fontColor=#ffffff;strokeColor=none;" parent="n2YznU2ucoyNt7KkT2WX-173" vertex="1">
                    <mxGeometry x="1279" y="960" width="40" height="40" as="geometry"/>
                </mxCell>
                <mxCell id="n2YznU2ucoyNt7KkT2WX-296" style="rounded=0;orthogonalLoop=1;jettySize=auto;html=1;exitX=1;exitY=1;exitDx=0;exitDy=0;entryX=0;entryY=0;entryDx=0;entryDy=0;endArrow=none;endFill=0;shadow=1;fillColor=#60a917;" parent="n2YznU2ucoyNt7KkT2WX-173" source="n2YznU2ucoyNt7KkT2WX-297" target="n2YznU2ucoyNt7KkT2WX-299" edge="1">
                    <mxGeometry relative="1" as="geometry"/>
                </mxCell>
                <mxCell id="n2YznU2ucoyNt7KkT2WX-297" value="1" style="ellipse;whiteSpace=wrap;html=1;aspect=fixed;shadow=1;fillColor=#60a917;fontColor=#ffffff;strokeColor=none;" parent="n2YznU2ucoyNt7KkT2WX-173" vertex="1">
                    <mxGeometry x="1279" y="800" width="40" height="40" as="geometry"/>
                </mxCell>
                <mxCell id="n2YznU2ucoyNt7KkT2WX-298" style="edgeStyle=none;rounded=0;orthogonalLoop=1;jettySize=auto;html=1;exitX=0;exitY=1;exitDx=0;exitDy=0;entryX=1;entryY=0;entryDx=0;entryDy=0;endArrow=none;endFill=0;shadow=1;fillColor=#60a917;" parent="n2YznU2ucoyNt7KkT2WX-173" source="n2YznU2ucoyNt7KkT2WX-299" target="n2YznU2ucoyNt7KkT2WX-301" edge="1">
                    <mxGeometry relative="1" as="geometry"/>
                </mxCell>
                <mxCell id="n2YznU2ucoyNt7KkT2WX-299" value="450" style="ellipse;whiteSpace=wrap;html=1;aspect=fixed;shadow=1;fillColor=#60a917;fontColor=#ffffff;strokeColor=none;" parent="n2YznU2ucoyNt7KkT2WX-173" vertex="1">
                    <mxGeometry x="1319" y="860" width="40" height="40" as="geometry"/>
                </mxCell>
                <mxCell id="n2YznU2ucoyNt7KkT2WX-300" style="edgeStyle=none;rounded=0;orthogonalLoop=1;jettySize=auto;html=1;exitX=1;exitY=1;exitDx=0;exitDy=0;entryX=0;entryY=0.25;entryDx=0;entryDy=0;entryPerimeter=0;endArrow=none;endFill=0;shadow=1;fillColor=#60a917;" parent="n2YznU2ucoyNt7KkT2WX-173" source="n2YznU2ucoyNt7KkT2WX-301" target="n2YznU2ucoyNt7KkT2WX-295" edge="1">
                    <mxGeometry relative="1" as="geometry"/>
                </mxCell>
                <mxCell id="n2YznU2ucoyNt7KkT2WX-301" value="3&lt;br&gt;" style="ellipse;whiteSpace=wrap;html=1;aspect=fixed;shadow=1;fillColor=#60a917;fontColor=#ffffff;strokeColor=none;" parent="n2YznU2ucoyNt7KkT2WX-173" vertex="1">
                    <mxGeometry x="1210" y="910" width="40" height="40" as="geometry"/>
                </mxCell>
                <mxCell id="n2YznU2ucoyNt7KkT2WX-302" style="edgeStyle=none;rounded=0;orthogonalLoop=1;jettySize=auto;html=1;exitX=1;exitY=1;exitDx=0;exitDy=0;entryX=0;entryY=0;entryDx=0;entryDy=0;endArrow=none;endFill=0;shadow=1;fillColor=#60a917;" parent="n2YznU2ucoyNt7KkT2WX-173" source="n2YznU2ucoyNt7KkT2WX-303" target="n2YznU2ucoyNt7KkT2WX-308" edge="1">
                    <mxGeometry relative="1" as="geometry"/>
                </mxCell>
                <mxCell id="n2YznU2ucoyNt7KkT2WX-303" value="56" style="ellipse;whiteSpace=wrap;html=1;aspect=fixed;shadow=1;fillColor=#60a917;fontColor=#ffffff;strokeColor=none;" parent="n2YznU2ucoyNt7KkT2WX-173" vertex="1">
                    <mxGeometry x="1370" y="1000" width="40" height="40" as="geometry"/>
                </mxCell>
                <mxCell id="n2YznU2ucoyNt7KkT2WX-304" style="edgeStyle=none;rounded=0;orthogonalLoop=1;jettySize=auto;html=1;exitX=0.5;exitY=0;exitDx=0;exitDy=0;entryX=0;entryY=1;entryDx=0;entryDy=0;endArrow=none;endFill=0;shadow=1;fillColor=#60a917;" parent="n2YznU2ucoyNt7KkT2WX-173" source="n2YznU2ucoyNt7KkT2WX-307" target="n2YznU2ucoyNt7KkT2WX-303" edge="1">
                    <mxGeometry relative="1" as="geometry"/>
                </mxCell>
                <mxCell id="n2YznU2ucoyNt7KkT2WX-305" style="edgeStyle=none;rounded=0;orthogonalLoop=1;jettySize=auto;html=1;exitX=1;exitY=1;exitDx=0;exitDy=0;entryX=0;entryY=0;entryDx=0;entryDy=0;endArrow=none;endFill=0;shadow=1;fillColor=#60a917;" parent="n2YznU2ucoyNt7KkT2WX-173" source="n2YznU2ucoyNt7KkT2WX-307" target="n2YznU2ucoyNt7KkT2WX-310" edge="1">
                    <mxGeometry relative="1" as="geometry"/>
                </mxCell>
                <mxCell id="n2YznU2ucoyNt7KkT2WX-306" style="edgeStyle=none;rounded=0;orthogonalLoop=1;jettySize=auto;html=1;exitX=0;exitY=1;exitDx=0;exitDy=0;endArrow=none;endFill=0;shadow=1;fillColor=#60a917;" parent="n2YznU2ucoyNt7KkT2WX-173" source="n2YznU2ucoyNt7KkT2WX-307" target="n2YznU2ucoyNt7KkT2WX-313" edge="1">
                    <mxGeometry relative="1" as="geometry"/>
                </mxCell>
                <mxCell id="n2YznU2ucoyNt7KkT2WX-307" value="23" style="ellipse;whiteSpace=wrap;html=1;aspect=fixed;shadow=1;fillColor=#60a917;strokeColor=#2D7600;fontColor=#ffffff;" parent="n2YznU2ucoyNt7KkT2WX-173" vertex="1">
                    <mxGeometry x="1319" y="1080" width="40" height="40" as="geometry"/>
                </mxCell>
                <mxCell id="n2YznU2ucoyNt7KkT2WX-308" value="123" style="ellipse;whiteSpace=wrap;html=1;aspect=fixed;shadow=1;fillColor=#60a917;fontColor=#ffffff;strokeColor=none;" parent="n2YznU2ucoyNt7KkT2WX-173" vertex="1">
                    <mxGeometry x="1460" y="1080" width="40" height="40" as="geometry"/>
                </mxCell>
                <mxCell id="n2YznU2ucoyNt7KkT2WX-309" style="edgeStyle=none;rounded=0;orthogonalLoop=1;jettySize=auto;html=1;exitX=0;exitY=1;exitDx=0;exitDy=0;entryX=1;entryY=0;entryDx=0;entryDy=0;endArrow=none;endFill=0;shadow=1;fillColor=#60a917;dashed=1;" parent="n2YznU2ucoyNt7KkT2WX-173" source="n2YznU2ucoyNt7KkT2WX-310" target="n2YznU2ucoyNt7KkT2WX-312" edge="1">
                    <mxGeometry relative="1" as="geometry"/>
                </mxCell>
                <mxCell id="n2YznU2ucoyNt7KkT2WX-315" style="edgeStyle=none;rounded=0;orthogonalLoop=1;jettySize=auto;html=1;exitX=0.5;exitY=1;exitDx=0;exitDy=0;entryX=0.5;entryY=0;entryDx=0;entryDy=0;shadow=1;endArrow=none;endFill=0;strokeColor=#004C99;" parent="n2YznU2ucoyNt7KkT2WX-173" source="n2YznU2ucoyNt7KkT2WX-310" target="n2YznU2ucoyNt7KkT2WX-314" edge="1">
                    <mxGeometry relative="1" as="geometry"/>
                </mxCell>
                <mxCell id="n2YznU2ucoyNt7KkT2WX-310" value="45" style="ellipse;whiteSpace=wrap;html=1;aspect=fixed;shadow=1;fillColor=#60a917;fontColor=#ffffff;strokeColor=none;" parent="n2YznU2ucoyNt7KkT2WX-173" vertex="1">
                    <mxGeometry x="1370" y="1140" width="40" height="40" as="geometry"/>
                </mxCell>
                <mxCell id="n2YznU2ucoyNt7KkT2WX-311" style="edgeStyle=none;rounded=0;orthogonalLoop=1;jettySize=auto;html=1;exitX=1;exitY=1;exitDx=0;exitDy=0;entryX=0;entryY=0;entryDx=0;entryDy=0;shadow=1;endArrow=none;endFill=0;strokeColor=#004C99;dashed=1;" parent="n2YznU2ucoyNt7KkT2WX-173" source="n2YznU2ucoyNt7KkT2WX-312" target="n2YznU2ucoyNt7KkT2WX-314" edge="1">
                    <mxGeometry relative="1" as="geometry"/>
                </mxCell>
                <mxCell id="n2YznU2ucoyNt7KkT2WX-312" value="12" style="ellipse;whiteSpace=wrap;html=1;aspect=fixed;shadow=1;fillColor=#fad9d5;strokeColor=#ae4132;" parent="n2YznU2ucoyNt7KkT2WX-173" vertex="1">
                    <mxGeometry x="1290" y="1200" width="40" height="40" as="geometry"/>
                </mxCell>
                <mxCell id="n2YznU2ucoyNt7KkT2WX-313" value="6" style="ellipse;whiteSpace=wrap;html=1;aspect=fixed;shadow=1;fillColor=#60a917;fontColor=#ffffff;strokeColor=none;" parent="n2YznU2ucoyNt7KkT2WX-173" vertex="1">
                    <mxGeometry x="1230" y="1130" width="40" height="40" as="geometry"/>
                </mxCell>
                <mxCell id="n2YznU2ucoyNt7KkT2WX-314" value="24" style="ellipse;whiteSpace=wrap;html=1;aspect=fixed;shadow=1;fillColor=#60a917;fontColor=#ffffff;strokeColor=none;" parent="n2YznU2ucoyNt7KkT2WX-173" vertex="1">
                    <mxGeometry x="1340" y="1260" width="40" height="40" as="geometry"/>
                </mxCell>
                <object label="avl-demo" id="2">
                    <mxCell parent="0" visible="0"/>
                </object>
                <mxCell id="9" style="edgeStyle=none;rounded=0;orthogonalLoop=1;jettySize=auto;html=1;exitX=0;exitY=1;exitDx=0;exitDy=0;entryX=1;entryY=0;entryDx=0;entryDy=0;endArrow=none;endFill=0;" edge="1" parent="2" source="3" target="4">
                    <mxGeometry relative="1" as="geometry"/>
                </mxCell>
                <mxCell id="10" style="edgeStyle=none;rounded=0;orthogonalLoop=1;jettySize=auto;html=1;exitX=1;exitY=1;exitDx=0;exitDy=0;endArrow=none;endFill=0;" edge="1" parent="2" source="3" target="5">
                    <mxGeometry relative="1" as="geometry"/>
                </mxCell>
                <mxCell id="3" value="1" style="ellipse;whiteSpace=wrap;html=1;aspect=fixed;shadow=1;fillColor=#60a917;fontColor=#ffffff;strokeColor=none;" vertex="1" parent="2">
                    <mxGeometry x="360" y="340" width="40" height="40" as="geometry"/>
                </mxCell>
                <mxCell id="4" value="2" style="ellipse;whiteSpace=wrap;html=1;aspect=fixed;shadow=1;fillColor=#60a917;fontColor=#ffffff;strokeColor=none;" vertex="1" parent="2">
                    <mxGeometry x="280" y="430" width="40" height="40" as="geometry"/>
                </mxCell>
                <mxCell id="11" style="edgeStyle=none;rounded=0;orthogonalLoop=1;jettySize=auto;html=1;exitX=1;exitY=1;exitDx=0;exitDy=0;endArrow=none;endFill=0;" edge="1" parent="2" source="5" target="6">
                    <mxGeometry relative="1" as="geometry"/>
                </mxCell>
                <mxCell id="5" value="2" style="ellipse;whiteSpace=wrap;html=1;aspect=fixed;shadow=1;fillColor=#60a917;fontColor=#ffffff;strokeColor=none;" vertex="1" parent="2">
                    <mxGeometry x="430" y="430" width="40" height="40" as="geometry"/>
                </mxCell>
                <mxCell id="12" style="edgeStyle=none;rounded=0;orthogonalLoop=1;jettySize=auto;html=1;exitX=0;exitY=1;exitDx=0;exitDy=0;entryX=1;entryY=0;entryDx=0;entryDy=0;endArrow=none;endFill=0;" edge="1" parent="2" source="6" target="7">
                    <mxGeometry relative="1" as="geometry"/>
                </mxCell>
                <mxCell id="6" value="3" style="ellipse;whiteSpace=wrap;html=1;aspect=fixed;shadow=1;fillColor=#60a917;fontColor=#ffffff;strokeColor=none;" vertex="1" parent="2">
                    <mxGeometry x="480" y="510" width="40" height="40" as="geometry"/>
                </mxCell>
                <mxCell id="7" value="4" style="ellipse;whiteSpace=wrap;html=1;aspect=fixed;shadow=1;fillColor=#60a917;fontColor=#ffffff;strokeColor=none;" vertex="1" parent="2">
                    <mxGeometry x="414" y="590" width="40" height="40" as="geometry"/>
                </mxCell>
                <mxCell id="13" style="edgeStyle=none;rounded=0;orthogonalLoop=1;jettySize=auto;html=1;exitX=0;exitY=1;exitDx=0;exitDy=0;entryX=1;entryY=0;entryDx=0;entryDy=0;endArrow=none;endFill=0;" edge="1" parent="2" source="15" target="16">
                    <mxGeometry relative="1" as="geometry"/>
                </mxCell>
                <mxCell id="14" style="edgeStyle=none;rounded=0;orthogonalLoop=1;jettySize=auto;html=1;exitX=1;exitY=1;exitDx=0;exitDy=0;endArrow=none;endFill=0;" edge="1" parent="2" source="15" target="18">
                    <mxGeometry relative="1" as="geometry"/>
                </mxCell>
                <mxCell id="15" value="1" style="ellipse;whiteSpace=wrap;html=1;aspect=fixed;shadow=1;fillColor=#60a917;fontColor=#ffffff;strokeColor=none;" vertex="1" parent="2">
                    <mxGeometry x="710" y="340" width="40" height="40" as="geometry"/>
                </mxCell>
                <mxCell id="25" style="edgeStyle=none;rounded=0;orthogonalLoop=1;jettySize=auto;html=1;exitX=0;exitY=1;exitDx=0;exitDy=0;entryX=0.725;entryY=0;entryDx=0;entryDy=0;entryPerimeter=0;endArrow=none;endFill=0;" edge="1" parent="2" source="16" target="23">
                    <mxGeometry relative="1" as="geometry"/>
                </mxCell>
                <mxCell id="26" style="edgeStyle=none;rounded=0;orthogonalLoop=1;jettySize=auto;html=1;exitX=1;exitY=1;exitDx=0;exitDy=0;endArrow=none;endFill=0;" edge="1" parent="2" source="16" target="24">
                    <mxGeometry relative="1" as="geometry"/>
                </mxCell>
                <mxCell id="16" value="2" style="ellipse;whiteSpace=wrap;html=1;aspect=fixed;shadow=1;fillColor=#60a917;fontColor=#ffffff;strokeColor=none;" vertex="1" parent="2">
                    <mxGeometry x="630" y="430" width="40" height="40" as="geometry"/>
                </mxCell>
                <mxCell id="17" style="edgeStyle=none;rounded=0;orthogonalLoop=1;jettySize=auto;html=1;exitX=1;exitY=1;exitDx=0;exitDy=0;endArrow=none;endFill=0;" edge="1" parent="2" source="18" target="20">
                    <mxGeometry relative="1" as="geometry"/>
                </mxCell>
                <mxCell id="18" value="2" style="ellipse;whiteSpace=wrap;html=1;aspect=fixed;shadow=1;fillColor=#60a917;fontColor=#ffffff;strokeColor=none;" vertex="1" parent="2">
                    <mxGeometry x="787" y="430" width="40" height="40" as="geometry"/>
                </mxCell>
                <mxCell id="19" style="edgeStyle=none;rounded=0;orthogonalLoop=1;jettySize=auto;html=1;exitX=0;exitY=1;exitDx=0;exitDy=0;entryX=1;entryY=0;entryDx=0;entryDy=0;endArrow=none;endFill=0;" edge="1" parent="2" source="20" target="21">
                    <mxGeometry relative="1" as="geometry"/>
                </mxCell>
                <mxCell id="20" value="3" style="ellipse;whiteSpace=wrap;html=1;aspect=fixed;shadow=1;fillColor=#60a917;fontColor=#ffffff;strokeColor=none;" vertex="1" parent="2">
                    <mxGeometry x="830" y="510" width="40" height="40" as="geometry"/>
                </mxCell>
                <mxCell id="21" value="4" style="ellipse;whiteSpace=wrap;html=1;aspect=fixed;shadow=1;fillColor=#60a917;fontColor=#ffffff;strokeColor=none;" vertex="1" parent="2">
                    <mxGeometry x="764" y="590" width="40" height="40" as="geometry"/>
                </mxCell>
                <mxCell id="23" value="3" style="ellipse;whiteSpace=wrap;html=1;aspect=fixed;shadow=1;fillColor=#60a917;fontColor=#ffffff;strokeColor=none;" vertex="1" parent="2">
                    <mxGeometry x="580" y="500" width="40" height="40" as="geometry"/>
                </mxCell>
                <mxCell id="24" value="3" style="ellipse;whiteSpace=wrap;html=1;aspect=fixed;shadow=1;fillColor=#60a917;fontColor=#ffffff;strokeColor=none;" vertex="1" parent="2">
                    <mxGeometry x="680" y="500" width="40" height="40" as="geometry"/>
                </mxCell>
                <mxCell id="27" value="" style="endArrow=classic;html=1;" edge="1" parent="2">
                    <mxGeometry width="50" height="50" relative="1" as="geometry">
                        <mxPoint x="920" y="350" as="sourcePoint"/>
                        <mxPoint x="920" y="640" as="targetPoint"/>
                    </mxGeometry>
                </mxCell>
                <mxCell id="28" value="depth" style="text;html=1;strokeColor=none;fillColor=none;align=center;verticalAlign=middle;whiteSpace=wrap;rounded=0;" vertex="1" parent="2">
                    <mxGeometry x="930" y="470" width="40" height="20" as="geometry"/>
                </mxCell>
                <mxCell id="29" value="invalid AVL" style="text;html=1;strokeColor=none;fillColor=none;align=center;verticalAlign=middle;whiteSpace=wrap;rounded=0;" vertex="1" parent="2">
                    <mxGeometry x="310" y="680" width="140" height="20" as="geometry"/>
                </mxCell>
                <mxCell id="30" value="valid AVL" style="text;html=1;strokeColor=none;fillColor=none;align=center;verticalAlign=middle;whiteSpace=wrap;rounded=0;" vertex="1" parent="2">
                    <mxGeometry x="685" y="680" width="90" height="20" as="geometry"/>
                </mxCell>
                <object label="avl-left-rotate-1" id="54">
                    <mxCell visible="0" parent="0"/>
                </object>
                <mxCell id="55" style="edgeStyle=none;rounded=0;orthogonalLoop=1;jettySize=auto;html=1;exitX=1;exitY=1;exitDx=0;exitDy=0;entryX=0;entryY=0;entryDx=0;entryDy=0;endArrow=none;endFill=0;" edge="1" parent="54" source="56" target="58">
                    <mxGeometry relative="1" as="geometry"/>
                </mxCell>
                <mxCell id="56" value="1" style="ellipse;whiteSpace=wrap;html=1;aspect=fixed;shadow=1;fillColor=#60a917;fontColor=#ffffff;strokeColor=none;" vertex="1" parent="54">
                    <mxGeometry x="350" y="140" width="40" height="40" as="geometry"/>
                </mxCell>
                <mxCell id="57" style="edgeStyle=none;rounded=0;orthogonalLoop=1;jettySize=auto;html=1;exitX=1;exitY=1;exitDx=0;exitDy=0;entryX=0;entryY=0;entryDx=0;entryDy=0;endArrow=none;endFill=0;" edge="1" parent="54" source="58" target="59">
                    <mxGeometry relative="1" as="geometry"/>
                </mxCell>
                <mxCell id="58" value="10" style="ellipse;whiteSpace=wrap;html=1;aspect=fixed;shadow=1;fillColor=#60a917;fontColor=#ffffff;strokeColor=none;" vertex="1" parent="54">
                    <mxGeometry x="414" y="190" width="40" height="40" as="geometry"/>
                </mxCell>
                <mxCell id="59" value="14" style="ellipse;whiteSpace=wrap;html=1;aspect=fixed;shadow=1;fillColor=#60a917;fontColor=#ffffff;strokeColor=none;" vertex="1" parent="54">
                    <mxGeometry x="480" y="240" width="40" height="40" as="geometry"/>
                </mxCell>
                <mxCell id="60" value="" style="shape=flexArrow;endArrow=classic;html=1;fillColor=#dae8fc;shadow=1;strokeColor=none;" edge="1" parent="54">
                    <mxGeometry width="50" height="50" relative="1" as="geometry">
                        <mxPoint x="570" y="209.5" as="sourcePoint"/>
                        <mxPoint x="670" y="209.5" as="targetPoint"/>
                    </mxGeometry>
                </mxCell>
                <mxCell id="61" value="Left rotate" style="text;html=1;strokeColor=none;fillColor=none;align=center;verticalAlign=middle;whiteSpace=wrap;rounded=0;" vertex="1" parent="54">
                    <mxGeometry x="560" y="250" width="120" height="20" as="geometry"/>
                </mxCell>
                <mxCell id="62" style="edgeStyle=none;rounded=0;orthogonalLoop=1;jettySize=auto;html=1;exitX=1;exitY=1;exitDx=0;exitDy=0;entryX=0.275;entryY=-0.025;entryDx=0;entryDy=0;entryPerimeter=0;endArrow=none;endFill=0;" edge="1" parent="54" source="63" target="66">
                    <mxGeometry relative="1" as="geometry"/>
                </mxCell>
                <mxCell id="63" value="10" style="ellipse;whiteSpace=wrap;html=1;aspect=fixed;shadow=1;fillColor=#60a917;fontColor=#ffffff;strokeColor=none;" vertex="1" parent="54">
                    <mxGeometry x="810" y="140" width="40" height="40" as="geometry"/>
                </mxCell>
                <mxCell id="64" style="edgeStyle=none;rounded=0;orthogonalLoop=1;jettySize=auto;html=1;exitX=0.5;exitY=0;exitDx=0;exitDy=0;entryX=0;entryY=1;entryDx=0;entryDy=0;endArrow=none;endFill=0;" edge="1" parent="54" source="65" target="63">
                    <mxGeometry relative="1" as="geometry"/>
                </mxCell>
                <mxCell id="65" value="1" style="ellipse;whiteSpace=wrap;html=1;aspect=fixed;shadow=1;fillColor=#60a917;fontColor=#ffffff;strokeColor=none;" vertex="1" parent="54">
                    <mxGeometry x="740" y="240" width="40" height="40" as="geometry"/>
                </mxCell>
                <mxCell id="66" value="14" style="ellipse;whiteSpace=wrap;html=1;aspect=fixed;shadow=1;fillColor=#60a917;fontColor=#ffffff;strokeColor=none;" vertex="1" parent="54">
                    <mxGeometry x="870" y="240" width="40" height="40" as="geometry"/>
                </mxCell>
                <mxCell id="67" value="" style="curved=1;endArrow=classic;html=1;shadow=1;dashed=1;" edge="1" parent="54">
                    <mxGeometry width="50" height="50" relative="1" as="geometry">
                        <mxPoint x="350" y="180" as="sourcePoint"/>
                        <mxPoint x="380" y="260" as="targetPoint"/>
                        <Array as="points">
                            <mxPoint x="320" y="220"/>
                        </Array>
                    </mxGeometry>
                </mxCell>
                <mxCell id="75" style="edgeStyle=none;rounded=0;orthogonalLoop=1;jettySize=auto;html=1;exitX=1;exitY=1;exitDx=0;exitDy=0;entryX=0;entryY=0;entryDx=0;entryDy=0;endArrow=none;endFill=0;" edge="1" parent="54" source="76" target="78">
                    <mxGeometry relative="1" as="geometry"/>
                </mxCell>
                <mxCell id="76" value="1" style="ellipse;whiteSpace=wrap;html=1;aspect=fixed;shadow=1;fillColor=#60a917;fontColor=#ffffff;strokeColor=none;" vertex="1" parent="54">
                    <mxGeometry x="60" y="150" width="40" height="40" as="geometry"/>
                </mxCell>
                <mxCell id="78" value="10" style="ellipse;whiteSpace=wrap;html=1;aspect=fixed;shadow=1;fillColor=#60a917;fontColor=#ffffff;strokeColor=none;" vertex="1" parent="54">
                    <mxGeometry x="124" y="200" width="40" height="40" as="geometry"/>
                </mxCell>
                <mxCell id="81" value="" style="shape=flexArrow;endArrow=classic;html=1;fillColor=#dae8fc;shadow=1;strokeColor=none;" edge="1" parent="54">
                    <mxGeometry width="50" height="50" relative="1" as="geometry">
                        <mxPoint x="200" y="209.5" as="sourcePoint"/>
                        <mxPoint x="300" y="209.5" as="targetPoint"/>
                    </mxGeometry>
                </mxCell>
                <mxCell id="82" value="insert 14" style="text;html=1;strokeColor=none;fillColor=none;align=center;verticalAlign=middle;whiteSpace=wrap;rounded=0;" vertex="1" parent="54">
                    <mxGeometry x="190" y="250" width="120" height="20" as="geometry"/>
                </mxCell>
                <object label="avl-right-rotate" id="83">
                    <mxCell visible="0" parent="0"/>
                </object>
                <mxCell id="89" value="" style="shape=flexArrow;endArrow=classic;html=1;fillColor=#dae8fc;shadow=1;strokeColor=none;" edge="1" parent="83">
                    <mxGeometry width="50" height="50" relative="1" as="geometry">
                        <mxPoint x="570" y="209.5" as="sourcePoint"/>
                        <mxPoint x="670" y="209.5" as="targetPoint"/>
                    </mxGeometry>
                </mxCell>
                <mxCell id="90" value="Right rotate" style="text;html=1;strokeColor=none;fillColor=none;align=center;verticalAlign=middle;whiteSpace=wrap;rounded=0;" vertex="1" parent="83">
                    <mxGeometry x="560" y="250" width="120" height="20" as="geometry"/>
                </mxCell>
                <mxCell id="91" style="edgeStyle=none;rounded=0;orthogonalLoop=1;jettySize=auto;html=1;exitX=1;exitY=1;exitDx=0;exitDy=0;entryX=0.275;entryY=-0.025;entryDx=0;entryDy=0;entryPerimeter=0;endArrow=none;endFill=0;" edge="1" parent="83" source="92" target="95">
                    <mxGeometry relative="1" as="geometry"/>
                </mxCell>
                <mxCell id="92" value="10" style="ellipse;whiteSpace=wrap;html=1;aspect=fixed;shadow=1;fillColor=#60a917;fontColor=#ffffff;strokeColor=none;" vertex="1" parent="83">
                    <mxGeometry x="810" y="140" width="40" height="40" as="geometry"/>
                </mxCell>
                <mxCell id="93" style="edgeStyle=none;rounded=0;orthogonalLoop=1;jettySize=auto;html=1;exitX=0.5;exitY=0;exitDx=0;exitDy=0;entryX=0;entryY=1;entryDx=0;entryDy=0;endArrow=none;endFill=0;" edge="1" parent="83" source="94" target="92">
                    <mxGeometry relative="1" as="geometry"/>
                </mxCell>
                <mxCell id="94" value="1" style="ellipse;whiteSpace=wrap;html=1;aspect=fixed;shadow=1;fillColor=#60a917;fontColor=#ffffff;strokeColor=none;" vertex="1" parent="83">
                    <mxGeometry x="740" y="240" width="40" height="40" as="geometry"/>
                </mxCell>
                <mxCell id="95" value="14" style="ellipse;whiteSpace=wrap;html=1;aspect=fixed;shadow=1;fillColor=#60a917;fontColor=#ffffff;strokeColor=none;" vertex="1" parent="83">
                    <mxGeometry x="870" y="240" width="40" height="40" as="geometry"/>
                </mxCell>
                <mxCell id="97" style="edgeStyle=none;rounded=0;orthogonalLoop=1;jettySize=auto;html=1;exitX=0;exitY=1;exitDx=0;exitDy=0;entryX=1;entryY=0;entryDx=0;entryDy=0;endArrow=none;endFill=0;" edge="1" parent="83" source="98" target="99">
                    <mxGeometry relative="1" as="geometry"/>
                </mxCell>
                <mxCell id="98" value="14" style="ellipse;whiteSpace=wrap;html=1;aspect=fixed;shadow=1;fillColor=#60a917;fontColor=#ffffff;strokeColor=none;" vertex="1" parent="83">
                    <mxGeometry x="100" y="170" width="40" height="40" as="geometry"/>
                </mxCell>
                <mxCell id="99" value="10" style="ellipse;whiteSpace=wrap;html=1;aspect=fixed;shadow=1;fillColor=#60a917;fontColor=#ffffff;strokeColor=none;" vertex="1" parent="83">
                    <mxGeometry x="30" y="230" width="40" height="40" as="geometry"/>
                </mxCell>
                <mxCell id="100" value="" style="shape=flexArrow;endArrow=classic;html=1;fillColor=#dae8fc;shadow=1;strokeColor=none;" edge="1" parent="83">
                    <mxGeometry width="50" height="50" relative="1" as="geometry">
                        <mxPoint x="200" y="209.5" as="sourcePoint"/>
                        <mxPoint x="300" y="209.5" as="targetPoint"/>
                    </mxGeometry>
                </mxCell>
                <mxCell id="101" value="insert 1" style="text;html=1;strokeColor=none;fillColor=none;align=center;verticalAlign=middle;whiteSpace=wrap;rounded=0;" vertex="1" parent="83">
                    <mxGeometry x="190" y="250" width="120" height="20" as="geometry"/>
                </mxCell>
                <mxCell id="104" style="edgeStyle=none;rounded=0;orthogonalLoop=1;jettySize=auto;html=1;exitX=0;exitY=1;exitDx=0;exitDy=0;entryX=1;entryY=0;entryDx=0;entryDy=0;endArrow=none;endFill=0;" edge="1" parent="83" source="105" target="106">
                    <mxGeometry relative="1" as="geometry"/>
                </mxCell>
                <mxCell id="105" value="14" style="ellipse;whiteSpace=wrap;html=1;aspect=fixed;shadow=1;fillColor=#60a917;fontColor=#ffffff;strokeColor=none;" vertex="1" parent="83">
                    <mxGeometry x="429" y="180" width="40" height="40" as="geometry"/>
                </mxCell>
                <mxCell id="108" style="edgeStyle=none;rounded=0;orthogonalLoop=1;jettySize=auto;html=1;exitX=0;exitY=1;exitDx=0;exitDy=0;entryX=1;entryY=0;entryDx=0;entryDy=0;shadow=1;endArrow=none;endFill=0;" edge="1" parent="83" source="106" target="107">
                    <mxGeometry relative="1" as="geometry"/>
                </mxCell>
                <mxCell id="106" value="10" style="ellipse;whiteSpace=wrap;html=1;aspect=fixed;shadow=1;fillColor=#60a917;fontColor=#ffffff;strokeColor=none;" vertex="1" parent="83">
                    <mxGeometry x="359" y="250" width="40" height="40" as="geometry"/>
                </mxCell>
                <mxCell id="107" value="1" style="ellipse;whiteSpace=wrap;html=1;aspect=fixed;shadow=1;fillColor=#60a917;fontColor=#ffffff;strokeColor=none;" vertex="1" parent="83">
                    <mxGeometry x="290" y="320" width="40" height="40" as="geometry"/>
                </mxCell>
                <mxCell id="109" value="" style="curved=1;endArrow=classic;html=1;shadow=1;dashed=1;" edge="1" parent="83">
                    <mxGeometry width="50" height="50" relative="1" as="geometry">
                        <mxPoint x="490" y="220" as="sourcePoint"/>
                        <mxPoint x="460" y="300" as="targetPoint"/>
                        <Array as="points">
                            <mxPoint x="510" y="280"/>
                        </Array>
                    </mxGeometry>
                </mxCell>
                <object label="complicate-rotate-question-mark" id="110">
                    <mxCell visible="0" parent="0"/>
                </object>
                <mxCell id="167" style="rounded=0;orthogonalLoop=1;jettySize=auto;html=1;exitX=1;exitY=1;exitDx=0;exitDy=0;entryX=0;entryY=0;entryDx=0;entryDy=0;endArrow=none;endFill=0;shadow=1;fillColor=#60a917;" edge="1" parent="110" source="168" target="170">
                    <mxGeometry relative="1" as="geometry"/>
                </mxCell>
                <mxCell id="168" value="1/-2" style="ellipse;whiteSpace=wrap;html=1;aspect=fixed;shadow=1;fillColor=#60a917;fontColor=#ffffff;strokeColor=none;" vertex="1" parent="110">
                    <mxGeometry x="-391" y="665" width="40" height="40" as="geometry"/>
                </mxCell>
                <mxCell id="169" style="edgeStyle=none;rounded=0;orthogonalLoop=1;jettySize=auto;html=1;exitX=0;exitY=1;exitDx=0;exitDy=0;entryX=1;entryY=0;entryDx=0;entryDy=0;endArrow=none;endFill=0;shadow=1;fillColor=#60a917;" edge="1" parent="110" source="170" target="172">
                    <mxGeometry relative="1" as="geometry"/>
                </mxCell>
                <mxCell id="170" value="450/1" style="ellipse;whiteSpace=wrap;html=1;aspect=fixed;shadow=1;fillColor=#60a917;fontColor=#ffffff;strokeColor=none;" vertex="1" parent="110">
                    <mxGeometry x="-351" y="725" width="40" height="40" as="geometry"/>
                </mxCell>
                <mxCell id="172" value="3/0" style="ellipse;whiteSpace=wrap;html=1;aspect=fixed;shadow=1;fillColor=#60a917;fontColor=#ffffff;strokeColor=none;" vertex="1" parent="110">
                    <mxGeometry x="-420" y="785" width="40" height="40" as="geometry"/>
                </mxCell>
                <mxCell id="176" style="rounded=0;orthogonalLoop=1;jettySize=auto;html=1;exitX=1;exitY=1;exitDx=0;exitDy=0;entryX=0;entryY=0;entryDx=0;entryDy=0;endArrow=none;endFill=0;shadow=1;fillColor=#60a917;" edge="1" parent="110" source="177" target="179">
                    <mxGeometry relative="1" as="geometry"/>
                </mxCell>
                <mxCell id="177" value="1/-1" style="ellipse;whiteSpace=wrap;html=1;aspect=fixed;shadow=1;fillColor=#60a917;fontColor=#ffffff;strokeColor=none;" vertex="1" parent="110">
                    <mxGeometry x="-650" y="655" width="40" height="40" as="geometry"/>
                </mxCell>
                <mxCell id="179" value="450/0" style="ellipse;whiteSpace=wrap;html=1;aspect=fixed;shadow=1;fillColor=#60a917;fontColor=#ffffff;strokeColor=none;" vertex="1" parent="110">
                    <mxGeometry x="-610" y="715" width="40" height="40" as="geometry"/>
                </mxCell>
                <mxCell id="181" value="" style="shape=flexArrow;endArrow=classic;html=1;fillColor=#dae8fc;shadow=1;strokeColor=none;" edge="1" parent="110">
                    <mxGeometry width="50" height="50" relative="1" as="geometry">
                        <mxPoint x="-530" y="744.5" as="sourcePoint"/>
                        <mxPoint x="-430" y="744.5" as="targetPoint"/>
                        <Array as="points">
                            <mxPoint x="-510" y="744.5"/>
                        </Array>
                    </mxGeometry>
                </mxCell>
                <mxCell id="183" value="insert 30" style="text;html=1;strokeColor=none;fillColor=none;align=center;verticalAlign=middle;whiteSpace=wrap;rounded=0;" vertex="1" parent="110">
                    <mxGeometry x="-550" y="765" width="120" height="20" as="geometry"/>
                </mxCell>
                <mxCell id="184" value="" style="shape=flexArrow;endArrow=classic;html=1;fillColor=#dae8fc;shadow=1;strokeColor=none;" edge="1" parent="110">
                    <mxGeometry width="50" height="50" relative="1" as="geometry">
                        <mxPoint x="-280" y="739.5" as="sourcePoint"/>
                        <mxPoint x="-180" y="739.5" as="targetPoint"/>
                    </mxGeometry>
                </mxCell>
                <mxCell id="189" value="&lt;font style=&quot;font-size: 59px&quot; color=&quot;#66b2ff&quot;&gt;？&lt;/font&gt;" style="text;html=1;strokeColor=none;fillColor=none;align=center;verticalAlign=middle;whiteSpace=wrap;rounded=0;" vertex="1" parent="110">
                    <mxGeometry x="-130" y="735" width="40" height="20" as="geometry"/>
                </mxCell>
                <object label="complicate-rotate-1" id="190">
                    <mxCell parent="0" visible="0"/>
                </object>
                <mxCell id="192" value="" style="curved=1;endArrow=classic;html=1;shadow=1;dashed=1;strokeColor=#0000CC;" edge="1" parent="190">
                    <mxGeometry width="50" height="50" relative="1" as="geometry">
                        <mxPoint x="-430" y="930" as="sourcePoint"/>
                        <mxPoint x="-210" y="960" as="targetPoint"/>
                        <Array as="points">
                            <mxPoint x="-323" y="560"/>
                        </Array>
                    </mxGeometry>
                </mxCell>
                <mxCell id="217" value="" style="curved=1;endArrow=classic;html=1;shadow=1;dashed=1;strokeColor=#0000CC;" edge="1" parent="190">
                    <mxGeometry width="50" height="50" relative="1" as="geometry">
                        <mxPoint x="80" y="920" as="sourcePoint"/>
                        <mxPoint x="-100" y="760" as="targetPoint"/>
                        <Array as="points">
                            <mxPoint x="-30" y="580"/>
                        </Array>
                    </mxGeometry>
                </mxCell>
                <mxCell id="220" style="rounded=0;orthogonalLoop=1;jettySize=auto;html=1;exitX=1;exitY=1;exitDx=0;exitDy=0;entryX=0;entryY=0;entryDx=0;entryDy=0;endArrow=none;endFill=0;shadow=1;fillColor=#60a917;" edge="1" parent="190" source="221" target="223">
                    <mxGeometry relative="1" as="geometry"/>
                </mxCell>
                <mxCell id="221" value="1/-2" style="ellipse;whiteSpace=wrap;html=1;aspect=fixed;shadow=1;fillColor=#60a917;fontColor=#ffffff;strokeColor=none;" vertex="1" parent="190">
                    <mxGeometry x="-381" y="675" width="40" height="40" as="geometry"/>
                </mxCell>
                <mxCell id="222" style="edgeStyle=none;rounded=0;orthogonalLoop=1;jettySize=auto;html=1;exitX=0;exitY=1;exitDx=0;exitDy=0;entryX=1;entryY=0;entryDx=0;entryDy=0;endArrow=none;endFill=0;shadow=1;fillColor=#60a917;" edge="1" parent="190" source="223" target="224">
                    <mxGeometry relative="1" as="geometry"/>
                </mxCell>
                <mxCell id="223" value="450/1" style="ellipse;whiteSpace=wrap;html=1;aspect=fixed;shadow=1;fillColor=#60a917;fontColor=#ffffff;strokeColor=none;" vertex="1" parent="190">
                    <mxGeometry x="-341" y="735" width="40" height="40" as="geometry"/>
                </mxCell>
                <mxCell id="224" value="3/0" style="ellipse;whiteSpace=wrap;html=1;aspect=fixed;shadow=1;fillColor=#60a917;fontColor=#ffffff;strokeColor=none;" vertex="1" parent="190">
                    <mxGeometry x="-410" y="795" width="40" height="40" as="geometry"/>
                </mxCell>
                <mxCell id="225" style="rounded=0;orthogonalLoop=1;jettySize=auto;html=1;exitX=1;exitY=1;exitDx=0;exitDy=0;entryX=0;entryY=0;entryDx=0;entryDy=0;endArrow=none;endFill=0;shadow=1;fillColor=#60a917;" edge="1" parent="190" source="226" target="227">
                    <mxGeometry relative="1" as="geometry"/>
                </mxCell>
                <mxCell id="226" value="1/-1" style="ellipse;whiteSpace=wrap;html=1;aspect=fixed;shadow=1;fillColor=#60a917;fontColor=#ffffff;strokeColor=none;" vertex="1" parent="190">
                    <mxGeometry x="-640" y="680" width="40" height="40" as="geometry"/>
                </mxCell>
                <mxCell id="227" value="450/0" style="ellipse;whiteSpace=wrap;html=1;aspect=fixed;shadow=1;fillColor=#60a917;fontColor=#ffffff;strokeColor=none;" vertex="1" parent="190">
                    <mxGeometry x="-600" y="740" width="40" height="40" as="geometry"/>
                </mxCell>
                <mxCell id="228" value="" style="shape=flexArrow;endArrow=classic;html=1;fillColor=#dae8fc;shadow=1;strokeColor=none;" edge="1" parent="190">
                    <mxGeometry width="50" height="50" relative="1" as="geometry">
                        <mxPoint x="-520" y="754.5" as="sourcePoint"/>
                        <mxPoint x="-420" y="754.5" as="targetPoint"/>
                        <Array as="points">
                            <mxPoint x="-500" y="754.5"/>
                        </Array>
                    </mxGeometry>
                </mxCell>
                <mxCell id="229" value="insert 30" style="text;html=1;strokeColor=none;fillColor=none;align=center;verticalAlign=middle;whiteSpace=wrap;rounded=0;" vertex="1" parent="190">
                    <mxGeometry x="-540" y="775" width="120" height="20" as="geometry"/>
                </mxCell>
                <mxCell id="230" value="" style="shape=flexArrow;endArrow=classic;html=1;fillColor=#dae8fc;shadow=1;strokeColor=none;" edge="1" parent="190">
                    <mxGeometry width="50" height="50" relative="1" as="geometry">
                        <mxPoint x="-270" y="749.5" as="sourcePoint"/>
                        <mxPoint x="-170" y="749.5" as="targetPoint"/>
                    </mxGeometry>
                </mxCell>
                <mxCell id="234" style="edgeStyle=none;rounded=0;orthogonalLoop=1;jettySize=auto;html=1;exitX=1;exitY=1;exitDx=0;exitDy=0;entryX=0.33;entryY=0.05;entryDx=0;entryDy=0;entryPerimeter=0;shadow=1;endArrow=none;endFill=0;" edge="1" parent="190" source="231" target="232">
                    <mxGeometry relative="1" as="geometry"/>
                </mxCell>
                <mxCell id="231" value="1/-2" style="ellipse;whiteSpace=wrap;html=1;aspect=fixed;shadow=1;fillColor=#60a917;fontColor=#ffffff;strokeColor=none;" vertex="1" parent="190">
                    <mxGeometry x="-54.5" y="675" width="40" height="40" as="geometry"/>
                </mxCell>
                <mxCell id="235" style="edgeStyle=none;rounded=0;orthogonalLoop=1;jettySize=auto;html=1;exitX=1;exitY=1;exitDx=0;exitDy=0;entryX=0.305;entryY=0;entryDx=0;entryDy=0;entryPerimeter=0;shadow=1;endArrow=none;endFill=0;" edge="1" parent="190" source="232" target="233">
                    <mxGeometry relative="1" as="geometry"/>
                </mxCell>
                <mxCell id="232" value="3/-1" style="ellipse;whiteSpace=wrap;html=1;aspect=fixed;shadow=1;fillColor=#60a917;fontColor=#ffffff;strokeColor=none;" vertex="1" parent="190">
                    <mxGeometry x="-14.5" y="745" width="40" height="40" as="geometry"/>
                </mxCell>
                <mxCell id="233" value="450/0" style="ellipse;whiteSpace=wrap;html=1;aspect=fixed;shadow=1;fillColor=#60a917;fontColor=#ffffff;strokeColor=none;" vertex="1" parent="190">
                    <mxGeometry x="35.5" y="830" width="40" height="40" as="geometry"/>
                </mxCell>
                <mxCell id="236" value="Right Rotate" style="text;html=1;strokeColor=none;fillColor=none;align=center;verticalAlign=middle;whiteSpace=wrap;rounded=0;" vertex="1" parent="190">
                    <mxGeometry x="-280" y="785" width="120" height="20" as="geometry"/>
                </mxCell>
                <mxCell id="237" value="" style="shape=flexArrow;endArrow=classic;html=1;fillColor=#dae8fc;shadow=1;strokeColor=none;" edge="1" parent="190">
                    <mxGeometry width="50" height="50" relative="1" as="geometry">
                        <mxPoint x="120" y="754.5" as="sourcePoint"/>
                        <mxPoint x="220" y="754.5" as="targetPoint"/>
                    </mxGeometry>
                </mxCell>
                <mxCell id="238" value="1/0" style="ellipse;whiteSpace=wrap;html=1;aspect=fixed;shadow=1;fillColor=#60a917;fontColor=#ffffff;strokeColor=none;" vertex="1" parent="190">
                    <mxGeometry x="270" y="810" width="40" height="40" as="geometry"/>
                </mxCell>
                <mxCell id="239" value="Left rotate" style="text;html=1;strokeColor=none;fillColor=none;align=center;verticalAlign=middle;whiteSpace=wrap;rounded=0;" vertex="1" parent="190">
                    <mxGeometry x="104.5" y="785" width="120" height="20" as="geometry"/>
                </mxCell>
                <mxCell id="242" style="edgeStyle=none;rounded=0;orthogonalLoop=1;jettySize=auto;html=1;exitX=0;exitY=1;exitDx=0;exitDy=0;entryX=1;entryY=0;entryDx=0;entryDy=0;shadow=1;endArrow=none;endFill=0;strokeColor=#0000CC;" edge="1" parent="190" source="240" target="238">
                    <mxGeometry relative="1" as="geometry"/>
                </mxCell>
                <mxCell id="243" style="edgeStyle=none;rounded=0;orthogonalLoop=1;jettySize=auto;html=1;exitX=1;exitY=1;exitDx=0;exitDy=0;entryX=0;entryY=0;entryDx=0;entryDy=0;shadow=1;endArrow=none;endFill=0;strokeColor=#0000CC;" edge="1" parent="190" source="240" target="241">
                    <mxGeometry relative="1" as="geometry"/>
                </mxCell>
                <mxCell id="240" value="3/0" style="ellipse;whiteSpace=wrap;html=1;aspect=fixed;shadow=1;fillColor=#60a917;fontColor=#ffffff;strokeColor=none;" vertex="1" parent="190">
                    <mxGeometry x="340" y="725" width="40" height="40" as="geometry"/>
                </mxCell>
                <mxCell id="241" value="450/0" style="ellipse;whiteSpace=wrap;html=1;aspect=fixed;shadow=1;fillColor=#60a917;fontColor=#ffffff;strokeColor=none;" vertex="1" parent="190">
                    <mxGeometry x="420" y="810" width="40" height="40" as="geometry"/>
                </mxCell>
                <object label="complicate-rotate-2" id="244">
                    <mxCell parent="0"/>
                </object>
                <mxCell id="245" value="" style="curved=1;endArrow=none;html=1;shadow=1;dashed=1;strokeColor=#0000CC;startArrow=block;startFill=1;endFill=0;" edge="1" parent="244">
                    <mxGeometry width="50" height="50" relative="1" as="geometry">
                        <mxPoint x="-500" y="1400" as="sourcePoint"/>
                        <mxPoint x="-230" y="1450" as="targetPoint"/>
                        <Array as="points">
                            <mxPoint x="-363" y="1110"/>
                        </Array>
                    </mxGeometry>
                </mxCell>
                <mxCell id="246" value="" style="curved=1;endArrow=none;html=1;shadow=1;dashed=1;strokeColor=#0000CC;startArrow=classic;startFill=1;endFill=0;" edge="1" parent="244">
                    <mxGeometry width="50" height="50" relative="1" as="geometry">
                        <mxPoint x="140" y="1430" as="sourcePoint"/>
                        <mxPoint x="-120" y="1420" as="targetPoint"/>
                        <Array as="points">
                            <mxPoint x="130" y="950"/>
                        </Array>
                    </mxGeometry>
                </mxCell>
                <mxCell id="251" value="50/0" style="ellipse;whiteSpace=wrap;html=1;aspect=fixed;shadow=1;fillColor=#60a917;fontColor=#ffffff;strokeColor=none;" vertex="1" parent="244">
                    <mxGeometry x="-320" y="1295" width="40" height="40" as="geometry"/>
                </mxCell>
                <mxCell id="252" style="rounded=0;orthogonalLoop=1;jettySize=auto;html=1;exitX=0;exitY=1;exitDx=0;exitDy=0;entryX=1;entryY=0;entryDx=0;entryDy=0;endArrow=none;endFill=0;shadow=1;fillColor=#60a917;" edge="1" parent="244" source="253" target="254">
                    <mxGeometry relative="1" as="geometry"/>
                </mxCell>
                <mxCell id="253" value="56/1" style="ellipse;whiteSpace=wrap;html=1;aspect=fixed;shadow=1;fillColor=#60a917;fontColor=#ffffff;strokeColor=none;" vertex="1" parent="244">
                    <mxGeometry x="-640" y="1155" width="40" height="40" as="geometry"/>
                </mxCell>
                <mxCell id="254" value="45/0" style="ellipse;whiteSpace=wrap;html=1;aspect=fixed;shadow=1;fillColor=#60a917;fontColor=#ffffff;strokeColor=none;" vertex="1" parent="244">
                    <mxGeometry x="-700" y="1235" width="40" height="40" as="geometry"/>
                </mxCell>
                <mxCell id="255" value="" style="shape=flexArrow;endArrow=classic;html=1;fillColor=#dae8fc;shadow=1;strokeColor=none;" edge="1" parent="244">
                    <mxGeometry width="50" height="50" relative="1" as="geometry">
                        <mxPoint x="-520" y="1244.5" as="sourcePoint"/>
                        <mxPoint x="-420" y="1244.5" as="targetPoint"/>
                        <Array as="points">
                            <mxPoint x="-500" y="1244.5"/>
                        </Array>
                    </mxGeometry>
                </mxCell>
                <mxCell id="256" value="insert 50" style="text;html=1;strokeColor=none;fillColor=none;align=center;verticalAlign=middle;whiteSpace=wrap;rounded=0;" vertex="1" parent="244">
                    <mxGeometry x="-540" y="1265" width="120" height="20" as="geometry"/>
                </mxCell>
                <mxCell id="257" value="" style="shape=flexArrow;endArrow=classic;html=1;fillColor=#dae8fc;shadow=1;strokeColor=none;" edge="1" parent="244">
                    <mxGeometry width="50" height="50" relative="1" as="geometry">
                        <mxPoint x="-270" y="1239.5" as="sourcePoint"/>
                        <mxPoint x="-170" y="1239.5" as="targetPoint"/>
                    </mxGeometry>
                </mxCell>
                <mxCell id="263" value="Left rotate" style="text;html=1;strokeColor=none;fillColor=none;align=center;verticalAlign=middle;whiteSpace=wrap;rounded=0;" vertex="1" parent="244">
                    <mxGeometry x="-280" y="1275" width="120" height="20" as="geometry"/>
                </mxCell>
                <mxCell id="264" value="" style="shape=flexArrow;endArrow=classic;html=1;fillColor=#dae8fc;shadow=1;strokeColor=none;" edge="1" parent="244">
                    <mxGeometry width="50" height="50" relative="1" as="geometry">
                        <mxPoint x="150" y="1245" as="sourcePoint"/>
                        <mxPoint x="250" y="1245" as="targetPoint"/>
                    </mxGeometry>
                </mxCell>
                <mxCell id="265" value="45/0" style="ellipse;whiteSpace=wrap;html=1;aspect=fixed;shadow=1;fillColor=#60a917;fontColor=#ffffff;strokeColor=none;" vertex="1" parent="244">
                    <mxGeometry x="270" y="1300" width="40" height="40" as="geometry"/>
                </mxCell>
                <mxCell id="266" value="Right rotate" style="text;html=1;strokeColor=none;fillColor=none;align=center;verticalAlign=middle;whiteSpace=wrap;rounded=0;" vertex="1" parent="244">
                    <mxGeometry x="140" y="1275" width="120" height="20" as="geometry"/>
                </mxCell>
                <mxCell id="267" style="edgeStyle=none;rounded=0;orthogonalLoop=1;jettySize=auto;html=1;exitX=0;exitY=1;exitDx=0;exitDy=0;entryX=1;entryY=0;entryDx=0;entryDy=0;shadow=1;endArrow=none;endFill=0;strokeColor=#0000CC;" edge="1" parent="244" source="269" target="265">
                    <mxGeometry relative="1" as="geometry"/>
                </mxCell>
                <mxCell id="268" style="edgeStyle=none;rounded=0;orthogonalLoop=1;jettySize=auto;html=1;exitX=1;exitY=1;exitDx=0;exitDy=0;entryX=0;entryY=0;entryDx=0;entryDy=0;shadow=1;endArrow=none;endFill=0;strokeColor=#0000CC;" edge="1" parent="244" source="269" target="270">
                    <mxGeometry relative="1" as="geometry"/>
                </mxCell>
                <mxCell id="269" value="50/1" style="ellipse;whiteSpace=wrap;html=1;aspect=fixed;shadow=1;fillColor=#60a917;fontColor=#ffffff;strokeColor=none;" vertex="1" parent="244">
                    <mxGeometry x="340" y="1215" width="40" height="40" as="geometry"/>
                </mxCell>
                <mxCell id="270" value="56/0" style="ellipse;whiteSpace=wrap;html=1;aspect=fixed;shadow=1;fillColor=#60a917;fontColor=#ffffff;strokeColor=none;" vertex="1" parent="244">
                    <mxGeometry x="420" y="1300" width="40" height="40" as="geometry"/>
                </mxCell>
                <mxCell id="271" style="rounded=0;orthogonalLoop=1;jettySize=auto;html=1;exitX=0;exitY=1;exitDx=0;exitDy=0;entryX=1;entryY=0;entryDx=0;entryDy=0;endArrow=none;endFill=0;shadow=1;fillColor=#60a917;" edge="1" parent="244" source="272" target="273">
                    <mxGeometry relative="1" as="geometry"/>
                </mxCell>
                <mxCell id="272" value="56/2" style="ellipse;whiteSpace=wrap;html=1;aspect=fixed;shadow=1;fillColor=#60a917;fontColor=#ffffff;strokeColor=none;" vertex="1" parent="244">
                    <mxGeometry x="-340" y="1165" width="40" height="40" as="geometry"/>
                </mxCell>
                <mxCell id="274" style="edgeStyle=none;rounded=0;orthogonalLoop=1;jettySize=auto;html=1;exitX=1;exitY=1;exitDx=0;exitDy=0;entryX=0;entryY=0;entryDx=0;entryDy=0;shadow=1;endArrow=none;endFill=0;strokeColor=#0000CC;" edge="1" parent="244" source="273" target="251">
                    <mxGeometry relative="1" as="geometry"/>
                </mxCell>
                <mxCell id="273" value="45/1" style="ellipse;whiteSpace=wrap;html=1;aspect=fixed;shadow=1;fillColor=#60a917;fontColor=#ffffff;strokeColor=none;" vertex="1" parent="244">
                    <mxGeometry x="-400" y="1245" width="40" height="40" as="geometry"/>
                </mxCell>
                <mxCell id="275" style="rounded=0;orthogonalLoop=1;jettySize=auto;html=1;exitX=0;exitY=1;exitDx=0;exitDy=0;entryX=1;entryY=0;entryDx=0;entryDy=0;endArrow=none;endFill=0;shadow=1;fillColor=#60a917;" edge="1" parent="244" source="276" target="277">
                    <mxGeometry relative="1" as="geometry"/>
                </mxCell>
                <mxCell id="276" value="56/2" style="ellipse;whiteSpace=wrap;html=1;aspect=fixed;shadow=1;fillColor=#60a917;fontColor=#ffffff;strokeColor=none;" vertex="1" parent="244">
                    <mxGeometry x="30" y="1169" width="40" height="40" as="geometry"/>
                </mxCell>
                <mxCell id="277" value="50/1" style="ellipse;whiteSpace=wrap;html=1;aspect=fixed;shadow=1;fillColor=#60a917;fontColor=#ffffff;strokeColor=none;" vertex="1" parent="244">
                    <mxGeometry x="-30" y="1249" width="40" height="40" as="geometry"/>
                </mxCell>
                <mxCell id="280" style="edgeStyle=none;rounded=0;orthogonalLoop=1;jettySize=auto;html=1;exitX=1;exitY=0;exitDx=0;exitDy=0;entryX=0;entryY=1;entryDx=0;entryDy=0;shadow=1;startArrow=none;startFill=0;endArrow=none;endFill=0;" edge="1" parent="244" source="278" target="277">
                    <mxGeometry relative="1" as="geometry"/>
                </mxCell>
                <mxCell id="278" value="45/0" style="ellipse;whiteSpace=wrap;html=1;aspect=fixed;shadow=1;fillColor=#60a917;fontColor=#ffffff;strokeColor=none;" vertex="1" parent="244">
                    <mxGeometry x="-100" y="1335" width="40" height="40" as="geometry"/>
                </mxCell>
                <object label="complicate-rotate-3" id="281">
                    <mxCell visible="0" parent="0"/>
                </object>
                <mxCell id="282" value="" style="curved=1;endArrow=none;html=1;shadow=1;dashed=1;strokeColor=#0000CC;startArrow=block;startFill=1;endFill=0;" edge="1" parent="281">
                    <mxGeometry width="50" height="50" relative="1" as="geometry">
                        <mxPoint x="-180" y="1440" as="sourcePoint"/>
                        <mxPoint x="30" y="1570" as="targetPoint"/>
                        <Array as="points">
                            <mxPoint x="-170" y="1050"/>
                        </Array>
                    </mxGeometry>
                </mxCell>
                <mxCell id="283" value="" style="curved=1;endArrow=none;html=1;shadow=1;dashed=1;strokeColor=#0000CC;startArrow=classic;startFill=1;endFill=0;" edge="1" parent="281">
                    <mxGeometry width="50" height="50" relative="1" as="geometry">
                        <mxPoint x="-450" y="1520" as="sourcePoint"/>
                        <mxPoint x="-650" y="1490" as="targetPoint"/>
                        <Array as="points">
                            <mxPoint x="-450" y="1130"/>
                        </Array>
                    </mxGeometry>
                </mxCell>
                <mxCell id="285" style="rounded=0;orthogonalLoop=1;jettySize=auto;html=1;exitX=0;exitY=1;exitDx=0;exitDy=0;entryX=1;entryY=0;entryDx=0;entryDy=0;endArrow=none;endFill=0;shadow=1;fillColor=#60a917;" edge="1" parent="281" source="286" target="287">
                    <mxGeometry relative="1" as="geometry"/>
                </mxCell>
                <mxCell id="312" value="" style="edgeStyle=none;rounded=0;orthogonalLoop=1;jettySize=auto;html=1;shadow=1;startArrow=none;startFill=0;endArrow=none;endFill=0;strokeColor=#000000;" edge="1" parent="281" source="286" target="308">
                    <mxGeometry relative="1" as="geometry"/>
                </mxCell>
                <mxCell id="286" value="24/-2" style="ellipse;whiteSpace=wrap;html=1;aspect=fixed;shadow=1;fillColor=#60a917;fontColor=#ffffff;strokeColor=none;" vertex="1" parent="281">
                    <mxGeometry x="-640" y="1155" width="40" height="40" as="geometry"/>
                </mxCell>
                <mxCell id="287" value="13/0" style="ellipse;whiteSpace=wrap;html=1;aspect=fixed;shadow=1;fillColor=#60a917;fontColor=#ffffff;strokeColor=none;" vertex="1" parent="281">
                    <mxGeometry x="-700" y="1235" width="40" height="40" as="geometry"/>
                </mxCell>
                <mxCell id="290" value="" style="shape=flexArrow;endArrow=classic;html=1;fillColor=#dae8fc;shadow=1;strokeColor=none;" edge="1" parent="281">
                    <mxGeometry width="50" height="50" relative="1" as="geometry">
                        <mxPoint x="50" y="1263.86" as="sourcePoint"/>
                        <mxPoint x="150" y="1263.86" as="targetPoint"/>
                    </mxGeometry>
                </mxCell>
                <mxCell id="291" value="Left rotate" style="text;html=1;strokeColor=none;fillColor=none;align=center;verticalAlign=middle;whiteSpace=wrap;rounded=0;" vertex="1" parent="281">
                    <mxGeometry x="40" y="1318.86" width="120" height="20" as="geometry"/>
                </mxCell>
                <mxCell id="292" value="" style="shape=flexArrow;endArrow=classic;html=1;fillColor=#dae8fc;shadow=1;strokeColor=none;" edge="1" parent="281">
                    <mxGeometry width="50" height="50" relative="1" as="geometry">
                        <mxPoint x="-390" y="1264.86" as="sourcePoint"/>
                        <mxPoint x="-290" y="1264.86" as="targetPoint"/>
                    </mxGeometry>
                </mxCell>
                <mxCell id="294" value="Right rotate" style="text;html=1;strokeColor=none;fillColor=none;align=center;verticalAlign=middle;whiteSpace=wrap;rounded=0;" vertex="1" parent="281">
                    <mxGeometry x="-400" y="1314.86" width="120" height="20" as="geometry"/>
                </mxCell>
                <mxCell id="313" style="edgeStyle=none;rounded=0;orthogonalLoop=1;jettySize=auto;html=1;exitX=1;exitY=1;exitDx=0;exitDy=0;entryX=0;entryY=0;entryDx=0;entryDy=0;shadow=1;startArrow=none;startFill=0;endArrow=none;endFill=0;strokeColor=#000000;" edge="1" parent="281" source="308" target="309">
                    <mxGeometry relative="1" as="geometry"/>
                </mxCell>
                <mxCell id="308" value="37/-2" style="ellipse;whiteSpace=wrap;html=1;aspect=fixed;shadow=1;fillColor=#60a917;fontColor=#ffffff;strokeColor=none;" vertex="1" parent="281">
                    <mxGeometry x="-590" y="1235" width="40" height="40" as="geometry"/>
                </mxCell>
                <mxCell id="314" style="edgeStyle=none;rounded=0;orthogonalLoop=1;jettySize=auto;html=1;exitX=0;exitY=1;exitDx=0;exitDy=0;entryX=1;entryY=0;entryDx=0;entryDy=0;shadow=1;startArrow=none;startFill=0;endArrow=none;endFill=0;strokeColor=#000000;" edge="1" parent="281" source="309" target="311">
                    <mxGeometry relative="1" as="geometry"/>
                </mxCell>
                <mxCell id="309" value="90/1" style="ellipse;whiteSpace=wrap;html=1;aspect=fixed;shadow=1;fillColor=#60a917;fontColor=#ffffff;strokeColor=none;" vertex="1" parent="281">
                    <mxGeometry x="-540" y="1304.86" width="40" height="40" as="geometry"/>
                </mxCell>
                <mxCell id="311" value="53/0" style="ellipse;whiteSpace=wrap;html=1;aspect=fixed;shadow=1;fillColor=#60a917;fontColor=#ffffff;strokeColor=none;" vertex="1" parent="281">
                    <mxGeometry x="-610" y="1370" width="40" height="40" as="geometry"/>
                </mxCell>
                <mxCell id="315" style="rounded=0;orthogonalLoop=1;jettySize=auto;html=1;exitX=0;exitY=1;exitDx=0;exitDy=0;entryX=1;entryY=0;entryDx=0;entryDy=0;endArrow=none;endFill=0;shadow=1;fillColor=#60a917;" edge="1" parent="281" source="317" target="318">
                    <mxGeometry relative="1" as="geometry"/>
                </mxCell>
                <mxCell id="316" value="" style="edgeStyle=none;rounded=0;orthogonalLoop=1;jettySize=auto;html=1;shadow=1;startArrow=none;startFill=0;endArrow=none;endFill=0;strokeColor=#000000;" edge="1" parent="281" source="317" target="320">
                    <mxGeometry relative="1" as="geometry"/>
                </mxCell>
                <mxCell id="317" value="24/-2" style="ellipse;whiteSpace=wrap;html=1;aspect=fixed;shadow=1;fillColor=#60a917;fontColor=#ffffff;strokeColor=none;" vertex="1" parent="281">
                    <mxGeometry x="-200" y="1169" width="40" height="40" as="geometry"/>
                </mxCell>
                <mxCell id="318" value="13/0" style="ellipse;whiteSpace=wrap;html=1;aspect=fixed;shadow=1;fillColor=#60a917;fontColor=#ffffff;strokeColor=none;" vertex="1" parent="281">
                    <mxGeometry x="-260" y="1249" width="40" height="40" as="geometry"/>
                </mxCell>
                <mxCell id="319" style="edgeStyle=none;rounded=0;orthogonalLoop=1;jettySize=auto;html=1;exitX=1;exitY=1;exitDx=0;exitDy=0;entryX=0;entryY=0;entryDx=0;entryDy=0;shadow=1;startArrow=none;startFill=0;endArrow=none;endFill=0;strokeColor=#000000;" edge="1" parent="281" source="320" target="322">
                    <mxGeometry relative="1" as="geometry"/>
                </mxCell>
                <mxCell id="320" value="37/-2" style="ellipse;whiteSpace=wrap;html=1;aspect=fixed;shadow=1;fillColor=#60a917;fontColor=#ffffff;strokeColor=none;" vertex="1" parent="281">
                    <mxGeometry x="-150" y="1249" width="40" height="40" as="geometry"/>
                </mxCell>
                <mxCell id="321" style="edgeStyle=none;rounded=0;orthogonalLoop=1;jettySize=auto;html=1;entryX=0;entryY=0;entryDx=0;entryDy=0;shadow=1;startArrow=none;startFill=0;endArrow=none;endFill=0;strokeColor=#000000;" edge="1" parent="281" target="323">
                    <mxGeometry relative="1" as="geometry">
                        <mxPoint x="-70" y="1360" as="sourcePoint"/>
                    </mxGeometry>
                </mxCell>
                <mxCell id="322" value="53/1" style="ellipse;whiteSpace=wrap;html=1;aspect=fixed;shadow=1;fillColor=#60a917;fontColor=#ffffff;strokeColor=none;" vertex="1" parent="281">
                    <mxGeometry x="-100" y="1318.86" width="40" height="40" as="geometry"/>
                </mxCell>
                <mxCell id="323" value="90/0" style="ellipse;whiteSpace=wrap;html=1;aspect=fixed;shadow=1;fillColor=#60a917;fontColor=#ffffff;strokeColor=none;" vertex="1" parent="281">
                    <mxGeometry x="-50" y="1400" width="40" height="40" as="geometry"/>
                </mxCell>
                <mxCell id="325" style="rounded=0;orthogonalLoop=1;jettySize=auto;html=1;exitX=0;exitY=1;exitDx=0;exitDy=0;entryX=1;entryY=0;entryDx=0;entryDy=0;endArrow=none;endFill=0;shadow=1;fillColor=#60a917;" edge="1" parent="281" source="327" target="328">
                    <mxGeometry relative="1" as="geometry"/>
                </mxCell>
                <mxCell id="326" value="" style="edgeStyle=none;rounded=0;orthogonalLoop=1;jettySize=auto;html=1;shadow=1;startArrow=none;startFill=0;endArrow=none;endFill=0;strokeColor=#000000;" edge="1" parent="281" source="327" target="330">
                    <mxGeometry relative="1" as="geometry"/>
                </mxCell>
                <mxCell id="327" value="24/-1" style="ellipse;whiteSpace=wrap;html=1;aspect=fixed;shadow=1;fillColor=#60a917;fontColor=#ffffff;strokeColor=none;" vertex="1" parent="281">
                    <mxGeometry x="260" y="1169" width="40" height="40" as="geometry"/>
                </mxCell>
                <mxCell id="328" value="13/0" style="ellipse;whiteSpace=wrap;html=1;aspect=fixed;shadow=1;fillColor=#60a917;fontColor=#ffffff;strokeColor=none;" vertex="1" parent="281">
                    <mxGeometry x="200" y="1249" width="40" height="40" as="geometry"/>
                </mxCell>
                <mxCell id="329" style="edgeStyle=none;rounded=0;orthogonalLoop=1;jettySize=auto;html=1;exitX=1;exitY=1;exitDx=0;exitDy=0;entryX=0;entryY=0;entryDx=0;entryDy=0;shadow=1;startArrow=none;startFill=0;endArrow=none;endFill=0;strokeColor=#000000;" edge="1" parent="281" source="330" target="332">
                    <mxGeometry relative="1" as="geometry"/>
                </mxCell>
                <mxCell id="334" style="edgeStyle=none;rounded=0;orthogonalLoop=1;jettySize=auto;html=1;exitX=0;exitY=1;exitDx=0;exitDy=0;entryX=1;entryY=0;entryDx=0;entryDy=0;shadow=1;startArrow=none;startFill=0;endArrow=none;endFill=0;strokeColor=#000000;" edge="1" parent="281" source="330" target="333">
                    <mxGeometry relative="1" as="geometry"/>
                </mxCell>
                <mxCell id="330" value="53/0" style="ellipse;whiteSpace=wrap;html=1;aspect=fixed;shadow=1;fillColor=#60a917;fontColor=#ffffff;strokeColor=none;" vertex="1" parent="281">
                    <mxGeometry x="310" y="1249" width="40" height="40" as="geometry"/>
                </mxCell>
                <mxCell id="332" value="90/0" style="ellipse;whiteSpace=wrap;html=1;aspect=fixed;shadow=1;fillColor=#60a917;fontColor=#ffffff;strokeColor=none;" vertex="1" parent="281">
                    <mxGeometry x="360" y="1318.86" width="40" height="40" as="geometry"/>
                </mxCell>
                <mxCell id="333" value="37/0" style="ellipse;whiteSpace=wrap;html=1;aspect=fixed;shadow=1;fillColor=#60a917;fontColor=#ffffff;strokeColor=none;" vertex="1" parent="281">
                    <mxGeometry x="260" y="1318.86" width="40" height="40" as="geometry"/>
                </mxCell>
            </root>
        </mxGraphModel>
    </diagram>
</mxfile>